<svg xmlns="http://www.w3.org/2000/svg" xmlns:xlink="http://www.w3.org/1999/xlink" width="324" zoomAndPan="magnify" viewBox="0 0 242.87999 276.749989" height="369" preserveAspectRatio="xMidYMid meet" version="1.0"><defs><clipPath id="b1f63bbac0"><path d="M 0.0507812 18 L 114 18 L 114 276.5 L 0.0507812 276.5 Z M 0.0507812 18 " clip-rule="nonzero"/></clipPath><clipPath id="960b816069"><path d="M -4.3125 0 L -4.3125 271.972656 C -4.3125 278.613281 1.066406 283.992188 7.707031 283.992188 L 276.40625 283.992188 C 283.046875 283.992188 288.425781 278.613281 288.425781 271.972656 L 288.425781 0 Z M -4.3125 0 " clip-rule="nonzero"/></clipPath><clipPath id="d407812c53"><path d="M 0.0507812 77 L 223 77 L 223 276.5 L 0.0507812 276.5 Z M 0.0507812 77 " clip-rule="nonzero"/></clipPath><clipPath id="9db22fbcd8"><path d="M -4.3125 0 L -4.3125 271.972656 C -4.3125 278.613281 1.066406 283.992188 7.707031 283.992188 L 276.40625 283.992188 C 283.046875 283.992188 288.425781 278.613281 288.425781 271.972656 L 288.425781 0 Z M -4.3125 0 " clip-rule="nonzero"/></clipPath><clipPath id="88ded72885"><path d="M 19 186 L 230 186 L 230 276.5 L 19 276.5 Z M 19 186 " clip-rule="nonzero"/></clipPath><clipPath id="a15d321eb2"><path d="M -4.3125 0 L -4.3125 271.972656 C -4.3125 278.613281 1.066406 283.992188 7.707031 283.992188 L 276.40625 283.992188 C 283.046875 283.992188 288.425781 278.613281 288.425781 271.972656 L 288.425781 0 Z M -4.3125 0 " clip-rule="nonzero"/></clipPath><clipPath id="3728dfded3"><path d="M 112 51 L 131 51 L 131 69 L 112 69 Z M 112 51 " clip-rule="nonzero"/></clipPath><clipPath id="a1ca2f2c1f"><path d="M -4.3125 0 L -4.3125 271.972656 C -4.3125 278.613281 1.066406 283.992188 7.707031 283.992188 L 276.40625 283.992188 C 283.046875 283.992188 288.425781 278.613281 288.425781 271.972656 L 288.425781 0 Z M -4.3125 0 " clip-rule="nonzero"/></clipPath><clipPath id="1fb8064f91"><path d="M 157 82 L 176 82 L 176 101 L 157 101 Z M 157 82 " clip-rule="nonzero"/></clipPath><clipPath id="2aeb6bbf7c"><path d="M -4.3125 0 L -4.3125 271.972656 C -4.3125 278.613281 1.066406 283.992188 7.707031 283.992188 L 276.40625 283.992188 C 283.046875 283.992188 288.425781 278.613281 288.425781 271.972656 L 288.425781 0 Z M -4.3125 0 " clip-rule="nonzero"/></clipPath><clipPath id="95d7851060"><path d="M 78 105 L 97 105 L 97 124 L 78 124 Z M 78 105 " clip-rule="nonzero"/></clipPath><clipPath id="961f129c0a"><path d="M -4.3125 0 L -4.3125 271.972656 C -4.3125 278.613281 1.066406 283.992188 7.707031 283.992188 L 276.40625 283.992188 C 283.046875 283.992188 288.425781 278.613281 288.425781 271.972656 L 288.425781 0 Z M -4.3125 0 " clip-rule="nonzero"/></clipPath><clipPath id="52a103d1c8"><path d="M 201 129 L 220 129 L 220 148 L 201 148 Z M 201 129 " clip-rule="nonzero"/></clipPath><clipPath id="396de7af24"><path d="M -4.3125 0 L -4.3125 271.972656 C -4.3125 278.613281 1.066406 283.992188 7.707031 283.992188 L 276.40625 283.992188 C 283.046875 283.992188 288.425781 278.613281 288.425781 271.972656 L 288.425781 0 Z M -4.3125 0 " clip-rule="nonzero"/></clipPath></defs><g clip-path="url(#b1f63bbac0)"><g clip-path="url(#960b816069)"><path fill="#b6c475" d="M 103.109375 290.59375 L 112.769531 201.214844 C 112.769531 201.214844 120.226562 168.550781 90.132812 159.097656 C 60.039062 149.648438 40.394531 119.929688 46.730469 82.546875 C 53.0625 45.160156 38.871094 12.648438 -7.640625 19.152344 L -7.640625 290.59375 Z M 103.109375 290.59375 " fill-opacity="1" fill-rule="nonzero"/></g></g><g clip-path="url(#d407812c53)"><g clip-path="url(#9db22fbcd8)"><path fill="#1e503f" d="M -7.640625 290.59375 L 170.027344 290.59375 C 201.242188 283.515625 227.167969 253.921875 221.183594 223.34375 C 212.113281 176.988281 177.734375 154.066406 127.097656 171.925781 C 55.304688 197.246094 41.34375 146.828125 23.71875 107.394531 C 17.664062 93.832031 7.796875 83.835938 -7.644531 77.421875 L -7.644531 290.601562 Z M -7.640625 290.59375 " fill-opacity="1" fill-rule="nonzero"/></g></g><g clip-path="url(#88ded72885)"><g clip-path="url(#a15d321eb2)"><path fill="#e25251" d="M 21.449219 212.882812 C 7.347656 246.339844 63.246094 248.820312 57.28125 290.585938 L 229.972656 290.585938 C 222.105469 277.453125 209.859375 266.4375 194.078125 266.015625 C 163.972656 265.214844 111.960938 278.929688 104.078125 233.730469 C 92.988281 170.132812 35.550781 179.425781 21.449219 212.882812 Z M 21.449219 212.882812 " fill-opacity="1" fill-rule="nonzero"/></g></g><g clip-path="url(#3728dfded3)"><g clip-path="url(#a1ca2f2c1f)"><path fill="#e25251" d="M 122.242188 51.074219 C 126.488281 51.6875 129.710938 55.683594 130.410156 59.871094 C 131.105469 64.058594 127.882812 67.972656 122.242188 68.796875 C 116.605469 69.613281 111.539062 65.625 112.238281 60 C 112.933594 54.363281 117.992188 50.460938 122.242188 51.074219 Z M 122.242188 51.074219 " fill-opacity="1" fill-rule="nonzero"/></g></g><g clip-path="url(#1fb8064f91)"><g clip-path="url(#2aeb6bbf7c)"><path fill="#b6c475" d="M 167.199219 82.621094 C 171.449219 83.234375 174.671875 87.230469 175.367188 91.425781 C 176.066406 95.613281 172.84375 99.523438 167.199219 100.347656 C 161.566406 101.167969 156.5 97.179688 157.195312 91.542969 C 157.894531 85.910156 162.953125 82.007812 167.199219 82.621094 Z M 167.199219 82.621094 " fill-opacity="1" fill-rule="nonzero"/></g></g><g clip-path="url(#95d7851060)"><g clip-path="url(#961f129c0a)"><path fill="#b6c475" d="M 88.65625 105.660156 C 92.90625 106.285156 96.128906 110.269531 96.824219 114.464844 C 97.519531 118.65625 94.300781 122.566406 88.65625 123.390625 C 83.023438 124.207031 77.957031 120.230469 78.652344 114.585938 C 79.351562 108.953125 84.40625 105.046875 88.65625 105.660156 Z M 88.65625 105.660156 " fill-opacity="1" fill-rule="nonzero"/></g></g><g clip-path="url(#52a103d1c8)"><g clip-path="url(#396de7af24)"><path fill="#1e503f" d="M 211.320312 129.316406 C 215.570312 129.933594 218.792969 133.925781 219.480469 138.113281 C 220.179688 142.3125 216.957031 146.214844 211.320312 147.039062 C 205.6875 147.855469 200.621094 143.871094 201.316406 138.242188 C 202.015625 132.609375 207.070312 128.703125 211.320312 129.316406 Z M 211.320312 129.316406 " fill-opacity="1" fill-rule="nonzero"/></g></g></svg>