<svg xmlns="http://www.w3.org/2000/svg" xmlns:xlink="http://www.w3.org/1999/xlink" width="500" zoomAndPan="magnify" viewBox="0 0 375 374.999991" height="500" preserveAspectRatio="xMidYMid meet" version="1.0"><defs><clipPath id="3359bb2510"><path d="M 25 109.472656 L 39 109.472656 L 39 123 L 25 123 Z M 25 109.472656 " clip-rule="nonzero"/></clipPath></defs><path fill="#1d4f3e" d="M 85.769531 199.753906 L 85.769531 199.261719 L 90.304688 199.261719 L 90.304688 199.753906 L 86.332031 199.753906 L 86.332031 203.332031 L 89.660156 203.332031 L 89.660156 203.824219 L 86.332031 203.824219 L 86.332031 207.683594 L 85.769531 207.683594 Z M 85.769531 199.753906 " fill-opacity="1" fill-rule="nonzero"/><path fill="#1d4f3e" d="M 96.457031 201.628906 L 96.457031 205.417969 C 96.457031 205.796875 96.457031 206.105469 96.457031 206.347656 C 96.46875 206.539062 96.507812 206.726562 96.570312 206.910156 C 96.59375 207.039062 96.660156 207.140625 96.765625 207.21875 C 96.867188 207.292969 96.976562 207.328125 97.101562 207.320312 C 97.28125 207.320312 97.449219 207.277344 97.609375 207.191406 C 97.777344 207.105469 97.929688 206.996094 98.070312 206.867188 L 98.253906 207.25 C 98.09375 207.433594 97.90625 207.585938 97.691406 207.699219 C 97.5 207.800781 97.292969 207.847656 97.074219 207.839844 C 96.738281 207.859375 96.472656 207.730469 96.273438 207.460938 C 96.09375 207.1875 95.996094 206.886719 95.980469 206.558594 C 95.839844 206.769531 95.726562 206.9375 95.628906 207.066406 C 95.535156 207.195312 95.429688 207.3125 95.304688 207.417969 C 94.984375 207.707031 94.613281 207.847656 94.183594 207.839844 C 93.847656 207.847656 93.539062 207.761719 93.253906 207.585938 C 92.980469 207.398438 92.761719 207.160156 92.59375 206.867188 C 92.425781 206.546875 92.300781 206.210938 92.230469 205.855469 C 92.140625 205.445312 92.101562 205.03125 92.105469 204.613281 C 92.097656 204.105469 92.171875 203.605469 92.328125 203.121094 C 92.453125 202.648438 92.695312 202.246094 93.042969 201.910156 C 93.410156 201.5625 93.847656 201.394531 94.351562 201.402344 C 94.628906 201.402344 94.902344 201.449219 95.164062 201.542969 C 95.441406 201.625 95.699219 201.746094 95.9375 201.910156 L 95.9375 201.5 Z M 95.964844 205.855469 L 95.964844 202.445312 C 95.734375 202.269531 95.480469 202.132812 95.207031 202.035156 C 94.933594 201.945312 94.652344 201.902344 94.363281 201.910156 C 93.949219 201.9375 93.609375 202.117188 93.351562 202.445312 C 93.078125 202.742188 92.894531 203.089844 92.804688 203.488281 C 92.707031 203.875 92.660156 204.269531 92.664062 204.671875 C 92.664062 205.023438 92.691406 205.378906 92.75 205.726562 C 92.804688 206.023438 92.898438 206.304688 93.03125 206.570312 C 93.15625 206.808594 93.324219 207.003906 93.535156 207.164062 C 93.738281 207.3125 93.960938 207.382812 94.210938 207.375 C 94.628906 207.363281 94.984375 207.207031 95.277344 206.910156 C 95.582031 206.597656 95.8125 206.234375 95.964844 205.824219 Z M 95.964844 205.855469 " fill-opacity="1" fill-rule="nonzero"/><path fill="#1d4f3e" d="M 106.972656 205.585938 L 106.972656 204.035156 C 106.988281 203.769531 106.988281 203.5 106.972656 203.234375 C 106.941406 202.917969 106.859375 202.617188 106.71875 202.332031 C 106.558594 202.058594 106.320312 201.925781 106.003906 201.9375 C 105.582031 201.925781 105.207031 202.058594 104.882812 202.332031 C 104.730469 202.445312 104.601562 202.582031 104.503906 202.742188 C 104.398438 202.882812 104.320312 203.039062 104.261719 203.207031 L 104.261719 207.683594 L 103.742188 207.683594 L 103.742188 203.953125 C 103.742188 203.769531 103.742188 203.570312 103.742188 203.386719 C 103.722656 203.027344 103.628906 202.683594 103.464844 202.359375 C 103.304688 202.0625 103.054688 201.921875 102.71875 201.9375 C 102.3125 201.941406 101.953125 202.070312 101.636719 202.332031 C 101.488281 202.441406 101.359375 202.566406 101.246094 202.710938 C 101.152344 202.851562 101.070312 202.996094 101.007812 203.148438 L 101.007812 207.683594 L 100.515625 207.683594 L 100.515625 201.628906 L 101.007812 201.5 L 101.007812 202.445312 C 101.191406 202.152344 101.433594 201.921875 101.734375 201.753906 C 102.070312 201.5625 102.429688 201.460938 102.816406 201.457031 C 103.121094 201.453125 103.390625 201.542969 103.632812 201.726562 C 103.882812 201.964844 104.042969 202.257812 104.109375 202.601562 C 104.339844 202.253906 104.632812 201.976562 104.992188 201.769531 C 105.351562 201.550781 105.742188 201.449219 106.160156 201.457031 C 106.570312 201.445312 106.882812 201.613281 107.101562 201.964844 C 107.292969 202.308594 107.410156 202.675781 107.449219 203.066406 C 107.476562 203.414062 107.476562 203.757812 107.449219 204.105469 L 107.449219 205.671875 C 107.433594 205.941406 107.433594 206.214844 107.449219 206.488281 C 107.472656 206.664062 107.511719 206.839844 107.5625 207.007812 C 107.605469 207.121094 107.675781 207.214844 107.773438 207.289062 C 107.871094 207.355469 107.980469 207.382812 108.097656 207.375 C 108.277344 207.371094 108.4375 207.308594 108.574219 207.191406 C 108.6875 207.09375 108.789062 206.984375 108.882812 206.867188 L 109.078125 207.25 C 109.015625 207.367188 108.929688 207.46875 108.828125 207.558594 C 108.730469 207.652344 108.625 207.734375 108.503906 207.796875 C 108.367188 207.867188 108.222656 207.902344 108.070312 207.894531 C 107.734375 207.914062 107.46875 207.785156 107.269531 207.515625 C 107.097656 207.25 107 206.957031 106.972656 206.644531 C 106.945312 206.289062 106.945312 205.9375 106.972656 205.585938 Z M 106.972656 205.585938 " fill-opacity="1" fill-rule="nonzero"/><path fill="#1d4f3e" d="M 111.957031 201.445312 L 111.957031 205.417969 C 111.941406 205.726562 111.941406 206.035156 111.957031 206.347656 C 111.972656 206.539062 112.007812 206.726562 112.070312 206.910156 C 112.097656 207.039062 112.164062 207.140625 112.265625 207.21875 C 112.367188 207.292969 112.480469 207.328125 112.605469 207.320312 C 112.78125 207.316406 112.949219 207.273438 113.109375 207.191406 C 113.273438 207.105469 113.425781 206.996094 113.558594 206.867188 L 113.742188 207.25 C 113.589844 207.4375 113.40625 207.585938 113.195312 207.699219 C 113 207.796875 112.792969 207.84375 112.574219 207.839844 C 112.21875 207.859375 111.941406 207.71875 111.746094 207.417969 C 111.582031 207.113281 111.488281 206.789062 111.464844 206.445312 C 111.449219 206.167969 111.449219 205.890625 111.464844 205.613281 L 111.464844 202.09375 L 110.890625 202.09375 L 110.890625 201.558594 L 111.4375 201.558594 Z M 111.199219 199.851562 C 111.195312 199.71875 111.242188 199.605469 111.339844 199.515625 C 111.433594 199.421875 111.546875 199.382812 111.675781 199.386719 C 111.800781 199.386719 111.910156 199.425781 112 199.515625 C 112.078125 199.613281 112.113281 199.726562 112.113281 199.851562 C 112.113281 199.972656 112.070312 200.078125 111.984375 200.160156 C 111.898438 200.246094 111.796875 200.289062 111.675781 200.289062 C 111.550781 200.292969 111.4375 200.257812 111.339844 200.175781 C 111.242188 200.089844 111.195312 199.984375 111.199219 199.851562 Z M 111.199219 199.851562 " fill-opacity="1" fill-rule="nonzero"/><path fill="#1d4f3e" d="M 119.300781 199.078125 L 119.300781 205.402344 C 119.285156 205.707031 119.285156 206.011719 119.300781 206.320312 C 119.3125 206.515625 119.34375 206.707031 119.398438 206.894531 C 119.4375 207.023438 119.507812 207.125 119.609375 207.207031 C 119.710938 207.28125 119.824219 207.3125 119.949219 207.304688 C 120.125 207.304688 120.292969 207.261719 120.453125 207.179688 C 120.621094 207.097656 120.769531 206.996094 120.902344 206.867188 L 121.085938 207.25 C 120.925781 207.414062 120.75 207.554688 120.550781 207.671875 C 120.351562 207.761719 120.140625 207.800781 119.917969 207.796875 C 119.5625 207.824219 119.289062 207.6875 119.089844 207.390625 C 118.921875 207.09375 118.828125 206.773438 118.808594 206.429688 C 118.792969 206.15625 118.792969 205.878906 118.808594 205.601562 L 118.808594 199.203125 Z M 119.300781 199.078125 " fill-opacity="1" fill-rule="nonzero"/><path fill="#1d4f3e" d="M 124.652344 201.445312 L 124.652344 205.417969 C 124.636719 205.726562 124.636719 206.035156 124.652344 206.347656 C 124.664062 206.539062 124.703125 206.726562 124.765625 206.910156 C 124.789062 207.039062 124.855469 207.140625 124.960938 207.21875 C 125.058594 207.292969 125.171875 207.328125 125.296875 207.320312 C 125.476562 207.316406 125.644531 207.273438 125.804688 207.191406 C 125.96875 207.105469 126.117188 206.996094 126.253906 206.867188 L 126.433594 207.25 C 126.285156 207.4375 126.101562 207.585938 125.886719 207.699219 C 125.691406 207.796875 125.488281 207.84375 125.269531 207.839844 C 124.910156 207.859375 124.636719 207.71875 124.441406 207.417969 C 124.273438 207.113281 124.179688 206.789062 124.160156 206.445312 C 124.144531 206.167969 124.144531 205.890625 124.160156 205.613281 L 124.160156 202.09375 L 123.585938 202.09375 L 123.585938 201.558594 L 124.132812 201.558594 Z M 123.894531 199.851562 C 123.894531 199.722656 123.941406 199.609375 124.035156 199.515625 C 124.128906 199.421875 124.238281 199.382812 124.371094 199.386719 C 124.496094 199.386719 124.601562 199.425781 124.695312 199.515625 C 124.769531 199.613281 124.808594 199.726562 124.804688 199.851562 C 124.808594 199.976562 124.769531 200.078125 124.679688 200.164062 C 124.597656 200.253906 124.492188 200.296875 124.371094 200.289062 C 124.246094 200.292969 124.132812 200.257812 124.035156 200.175781 C 123.933594 200.089844 123.886719 199.984375 123.894531 199.851562 Z M 123.894531 199.851562 " fill-opacity="1" fill-rule="nonzero"/><path fill="#1d4f3e" d="M 132.542969 201.628906 L 132.542969 205.417969 C 132.542969 205.796875 132.542969 206.105469 132.542969 206.347656 C 132.558594 206.539062 132.59375 206.726562 132.65625 206.910156 C 132.683594 207.039062 132.746094 207.140625 132.851562 207.21875 C 132.953125 207.292969 133.0625 207.328125 133.1875 207.320312 C 133.367188 207.320312 133.535156 207.277344 133.695312 207.191406 C 133.863281 207.105469 134.015625 206.996094 134.15625 206.867188 L 134.339844 207.25 C 134.179688 207.433594 133.992188 207.585938 133.777344 207.699219 C 133.585938 207.800781 133.378906 207.847656 133.160156 207.839844 C 132.824219 207.859375 132.558594 207.730469 132.359375 207.460938 C 132.179688 207.1875 132.082031 206.886719 132.066406 206.558594 C 131.925781 206.769531 131.8125 206.9375 131.714844 207.066406 C 131.617188 207.191406 131.511719 207.308594 131.390625 207.417969 C 131.070312 207.707031 130.699219 207.847656 130.269531 207.839844 C 129.933594 207.847656 129.625 207.761719 129.339844 207.585938 C 129.0625 207.402344 128.84375 207.160156 128.679688 206.867188 C 128.503906 206.550781 128.382812 206.210938 128.316406 205.855469 C 128.226562 205.445312 128.1875 205.03125 128.191406 204.613281 C 128.195312 204.101562 128.285156 203.605469 128.457031 203.121094 C 128.582031 202.648438 128.820312 202.246094 129.171875 201.910156 C 129.539062 201.5625 129.972656 201.394531 130.476562 201.402344 C 130.757812 201.402344 131.03125 201.449219 131.292969 201.542969 C 131.570312 201.625 131.828125 201.746094 132.066406 201.910156 L 132.066406 201.5 Z M 132.050781 205.855469 L 132.050781 202.445312 C 131.820312 202.269531 131.566406 202.132812 131.292969 202.035156 C 131.019531 201.945312 130.738281 201.902344 130.449219 201.910156 C 130.03125 201.902344 129.679688 202.054688 129.398438 202.359375 C 129.121094 202.660156 128.941406 203.007812 128.851562 203.402344 C 128.746094 203.789062 128.695312 204.183594 128.695312 204.585938 C 128.699219 204.941406 128.730469 205.292969 128.792969 205.640625 C 128.847656 205.9375 128.941406 206.21875 129.074219 206.488281 C 129.199219 206.71875 129.363281 206.917969 129.566406 207.078125 C 129.773438 207.222656 130.003906 207.292969 130.253906 207.289062 C 130.671875 207.28125 131.027344 207.125 131.320312 206.824219 C 131.632812 206.542969 131.875 206.207031 132.050781 205.824219 Z M 132.050781 205.855469 " fill-opacity="1" fill-rule="nonzero"/><path fill="#1d4f3e" d="M 137.316406 207.179688 L 137.402344 206.671875 C 137.703125 206.898438 138.035156 207.066406 138.398438 207.179688 C 138.6875 207.269531 138.980469 207.316406 139.28125 207.320312 C 139.699219 207.339844 140.078125 207.230469 140.417969 206.996094 C 140.5625 206.882812 140.675781 206.746094 140.757812 206.582031 C 140.839844 206.421875 140.878906 206.246094 140.878906 206.066406 C 140.878906 205.882812 140.839844 205.710938 140.757812 205.546875 C 140.675781 205.382812 140.5625 205.246094 140.417969 205.136719 C 140.070312 204.917969 139.6875 204.777344 139.28125 204.710938 C 138.808594 204.65625 138.382812 204.484375 138.003906 204.191406 C 137.636719 203.859375 137.46875 203.445312 137.5 202.953125 C 137.496094 202.714844 137.546875 202.488281 137.652344 202.277344 C 137.753906 202.074219 137.898438 201.914062 138.089844 201.796875 C 138.515625 201.519531 138.984375 201.386719 139.492188 201.402344 C 139.820312 201.402344 140.140625 201.460938 140.449219 201.570312 C 140.667969 201.644531 140.878906 201.746094 141.078125 201.867188 L 140.96875 202.347656 C 140.714844 202.203125 140.445312 202.089844 140.167969 202.007812 C 139.953125 201.953125 139.738281 201.921875 139.519531 201.910156 C 139.15625 201.894531 138.804688 201.960938 138.46875 202.105469 C 138.300781 202.1875 138.175781 202.304688 138.082031 202.464844 C 137.988281 202.625 137.949219 202.796875 137.960938 202.980469 C 137.914062 203.328125 138.023438 203.621094 138.285156 203.851562 C 138.574219 204.0625 138.898438 204.1875 139.253906 204.21875 C 139.765625 204.308594 140.234375 204.5 140.660156 204.796875 C 140.851562 204.949219 141.007812 205.128906 141.121094 205.347656 C 141.238281 205.566406 141.292969 205.800781 141.289062 206.050781 C 141.304688 206.496094 141.167969 206.890625 140.882812 207.234375 C 140.609375 207.511719 140.28125 207.695312 139.898438 207.785156 C 139.679688 207.804688 139.460938 207.804688 139.238281 207.785156 C 139.070312 207.800781 138.902344 207.800781 138.734375 207.785156 C 138.21875 207.6875 137.746094 207.484375 137.316406 207.179688 Z M 137.316406 207.179688 " fill-opacity="1" fill-rule="nonzero"/><path fill="#1d4f3e" d="M 149.125 207.683594 L 148.632812 207.683594 L 148.632812 199.261719 L 150.585938 199.261719 C 151.105469 199.253906 151.621094 199.304688 152.128906 199.417969 C 152.589844 199.527344 152.964844 199.773438 153.253906 200.148438 C 153.578125 200.660156 153.722656 201.21875 153.6875 201.824219 C 153.726562 202.207031 153.667969 202.570312 153.511719 202.921875 C 153.359375 203.269531 153.125 203.558594 152.816406 203.78125 C 152.523438 203.953125 152.210938 204.070312 151.878906 204.136719 C 151.464844 204.207031 151.046875 204.242188 150.628906 204.234375 L 149.222656 204.234375 Z M 149.125 199.753906 L 149.125 203.742188 L 150.53125 203.742188 C 150.886719 203.765625 151.242188 203.765625 151.597656 203.742188 C 151.867188 203.707031 152.125 203.625 152.367188 203.5 C 152.617188 203.359375 152.804688 203.164062 152.929688 202.910156 C 153.074219 202.589844 153.136719 202.257812 153.128906 201.910156 C 153.140625 201.539062 153.074219 201.179688 152.929688 200.839844 C 152.8125 200.5625 152.632812 200.34375 152.382812 200.175781 C 152.148438 200.035156 151.894531 199.945312 151.625 199.910156 C 151.28125 199.847656 150.933594 199.820312 150.585938 199.824219 Z M 149.125 199.753906 " fill-opacity="1" fill-rule="nonzero"/><path fill="#1d4f3e" d="M 161.269531 201.570312 L 161.171875 202.121094 C 161.0625 202.058594 160.945312 202.011719 160.820312 201.980469 C 160.679688 201.964844 160.539062 201.964844 160.398438 201.980469 C 160.1875 201.980469 159.984375 202.03125 159.796875 202.136719 C 159.582031 202.238281 159.390625 202.375 159.222656 202.542969 C 159.046875 202.710938 158.90625 202.902344 158.800781 203.121094 C 158.691406 203.3125 158.632812 203.519531 158.632812 203.742188 L 158.632812 207.726562 L 158.140625 207.726562 L 158.140625 201.671875 L 158.632812 201.542969 L 158.632812 202.613281 C 158.714844 202.460938 158.820312 202.320312 158.941406 202.191406 C 159.074219 202.058594 159.21875 201.933594 159.375 201.824219 C 159.546875 201.714844 159.730469 201.625 159.921875 201.558594 C 160.101562 201.484375 160.289062 201.449219 160.484375 201.445312 C 160.671875 201.453125 160.855469 201.484375 161.03125 201.542969 Z M 161.269531 201.570312 " fill-opacity="1" fill-rule="nonzero"/><path fill="#1d4f3e" d="M 165.75 201.402344 C 166.078125 201.398438 166.394531 201.449219 166.703125 201.558594 C 167.105469 201.722656 167.410156 201.992188 167.617188 202.375 C 167.9375 203.007812 168.078125 203.679688 168.039062 204.390625 L 168.039062 204.894531 C 168.109375 205.742188 167.894531 206.507812 167.394531 207.191406 C 166.945312 207.671875 166.390625 207.886719 165.734375 207.839844 C 165.414062 207.851562 165.097656 207.800781 164.796875 207.683594 C 164.382812 207.535156 164.074219 207.269531 163.867188 206.882812 C 163.550781 206.246094 163.410156 205.578125 163.449219 204.867188 L 163.449219 204.359375 C 163.378906 203.515625 163.59375 202.75 164.09375 202.066406 C 164.542969 201.585938 165.097656 201.367188 165.75 201.402344 Z M 163.9375 204.613281 C 163.90625 205 163.90625 205.382812 163.9375 205.769531 C 163.984375 206.066406 164.082031 206.34375 164.234375 206.601562 C 164.363281 206.839844 164.550781 207.015625 164.796875 207.136719 C 165.074219 207.273438 165.371094 207.332031 165.679688 207.320312 C 165.988281 207.347656 166.28125 207.285156 166.554688 207.136719 C 166.828125 206.988281 167.035156 206.777344 167.183594 206.5 C 167.304688 206.246094 167.386719 205.980469 167.421875 205.699219 C 167.445312 205.34375 167.445312 204.984375 167.421875 204.628906 C 167.425781 204.246094 167.398438 203.863281 167.335938 203.488281 C 167.289062 203.195312 167.195312 202.917969 167.054688 202.65625 C 166.917969 202.421875 166.734375 202.246094 166.496094 202.121094 C 166.210938 201.984375 165.910156 201.925781 165.59375 201.9375 C 165.15625 201.914062 164.769531 202.039062 164.429688 202.316406 C 164.152344 202.585938 163.980469 202.910156 163.910156 203.289062 C 163.871094 203.734375 163.878906 204.175781 163.9375 204.613281 Z M 163.9375 204.613281 " fill-opacity="1" fill-rule="nonzero"/><path fill="#1d4f3e" d="M 174.609375 199.105469 L 174.609375 205.417969 C 174.59375 205.726562 174.59375 206.035156 174.609375 206.347656 C 174.621094 206.539062 174.652344 206.726562 174.707031 206.910156 C 174.746094 207.035156 174.816406 207.140625 174.917969 207.21875 C 175.019531 207.292969 175.132812 207.328125 175.257812 207.320312 C 175.464844 207.308594 175.660156 207.25 175.847656 207.148438 C 176.015625 207.054688 176.175781 206.941406 176.324219 206.8125 L 176.503906 207.191406 C 176.183594 207.601562 175.761719 207.816406 175.242188 207.839844 C 174.90625 207.859375 174.640625 207.730469 174.441406 207.460938 C 174.261719 207.1875 174.15625 206.886719 174.132812 206.558594 C 173.992188 206.769531 173.878906 206.9375 173.78125 207.066406 C 173.683594 207.191406 173.578125 207.308594 173.457031 207.417969 C 173.136719 207.703125 172.765625 207.84375 172.335938 207.839844 C 172 207.847656 171.691406 207.761719 171.410156 207.585938 C 171.125 207.40625 170.90625 207.164062 170.75 206.867188 C 170.566406 206.550781 170.441406 206.214844 170.371094 205.855469 C 170.292969 205.445312 170.257812 205.03125 170.257812 204.613281 C 170.253906 204.105469 170.324219 203.609375 170.46875 203.121094 C 170.601562 202.648438 170.84375 202.246094 171.199219 201.910156 C 171.5625 201.558594 171.996094 201.386719 172.503906 201.402344 C 172.785156 201.402344 173.054688 201.449219 173.316406 201.542969 C 173.589844 201.625 173.84375 201.746094 174.078125 201.910156 L 174.078125 199.203125 Z M 174.117188 205.824219 L 174.117188 202.445312 C 173.890625 202.265625 173.636719 202.128906 173.359375 202.035156 C 173.085938 201.945312 172.804688 201.902344 172.519531 201.910156 C 172.101562 201.902344 171.75 202.054688 171.464844 202.359375 C 171.195312 202.660156 171.015625 203.007812 170.929688 203.402344 C 170.828125 203.789062 170.777344 204.183594 170.777344 204.585938 C 170.773438 204.941406 170.804688 205.292969 170.875 205.640625 C 170.921875 205.9375 171.015625 206.222656 171.15625 206.488281 C 171.269531 206.726562 171.433594 206.921875 171.648438 207.078125 C 171.851562 207.226562 172.082031 207.296875 172.335938 207.289062 C 172.75 207.277344 173.101562 207.125 173.386719 206.824219 C 173.707031 206.546875 173.949219 206.214844 174.117188 205.824219 Z M 174.117188 205.824219 " fill-opacity="1" fill-rule="nonzero"/><path fill="#1d4f3e" d="M 185.675781 207.25 C 185.515625 207.433594 185.328125 207.585938 185.113281 207.699219 C 184.917969 207.800781 184.714844 207.847656 184.496094 207.839844 C 184.316406 207.84375 184.144531 207.804688 183.988281 207.714844 C 183.839844 207.621094 183.722656 207.5 183.636719 207.347656 C 183.558594 207.175781 183.496094 206.996094 183.457031 206.8125 L 183.457031 206.882812 C 183.304688 207.042969 183.140625 207.1875 182.964844 207.320312 C 182.691406 207.515625 182.398438 207.664062 182.078125 207.769531 C 181.902344 207.792969 181.722656 207.792969 181.546875 207.769531 C 181.214844 207.785156 180.902344 207.71875 180.605469 207.574219 C 180.359375 207.4375 180.167969 207.25 180.03125 207.007812 C 179.894531 206.75 179.808594 206.480469 179.761719 206.191406 C 179.730469 205.835938 179.730469 205.476562 179.761719 205.121094 L 179.761719 201.5 L 180.253906 201.628906 L 180.253906 205.261719 C 180.230469 205.570312 180.230469 205.882812 180.253906 206.191406 C 180.285156 206.421875 180.359375 206.640625 180.480469 206.839844 C 180.570312 207.019531 180.707031 207.15625 180.886719 207.25 C 181.089844 207.351562 181.304688 207.398438 181.53125 207.390625 C 182.011719 207.386719 182.4375 207.234375 182.808594 206.9375 C 183.058594 206.753906 183.269531 206.53125 183.441406 206.277344 C 183.441406 206.035156 183.441406 205.769531 183.441406 205.460938 L 183.441406 201.558594 L 183.933594 201.558594 L 183.933594 202.964844 C 183.933594 203.21875 183.933594 203.417969 183.933594 203.570312 L 183.933594 205.359375 C 183.917969 205.671875 183.917969 205.980469 183.933594 206.289062 C 183.9375 206.484375 183.96875 206.671875 184.03125 206.855469 C 184.066406 206.980469 184.136719 207.085938 184.242188 207.164062 C 184.347656 207.242188 184.464844 207.273438 184.59375 207.261719 C 184.769531 207.261719 184.933594 207.21875 185.085938 207.136719 C 185.253906 207.046875 185.410156 206.941406 185.546875 206.8125 Z M 185.675781 207.25 " fill-opacity="1" fill-rule="nonzero"/><path fill="#1d4f3e" d="M 192.640625 203.683594 L 192.191406 203.683594 C 192.121094 203.21875 191.941406 202.804688 191.640625 202.445312 C 191.285156 202.113281 190.863281 201.964844 190.378906 201.992188 C 190.050781 201.980469 189.742188 202.050781 189.453125 202.207031 C 189.210938 202.351562 189.023438 202.546875 188.890625 202.796875 C 188.765625 203.050781 188.6875 203.320312 188.652344 203.601562 C 188.605469 203.957031 188.582031 204.3125 188.582031 204.671875 C 188.578125 205.058594 188.605469 205.441406 188.664062 205.824219 C 188.707031 206.121094 188.800781 206.398438 188.945312 206.65625 C 189.078125 206.886719 189.261719 207.066406 189.492188 207.191406 C 189.777344 207.328125 190.078125 207.390625 190.390625 207.375 C 190.914062 207.410156 191.347656 207.230469 191.699219 206.839844 C 191.835938 206.675781 191.9375 206.492188 192.007812 206.289062 C 192.085938 206.046875 192.136719 205.796875 192.160156 205.542969 L 192.625 205.542969 C 192.628906 205.882812 192.574219 206.210938 192.46875 206.53125 C 192.371094 206.8125 192.214844 207.0625 192.007812 207.277344 C 191.808594 207.488281 191.574219 207.648438 191.304688 207.753906 C 191.003906 207.859375 190.695312 207.910156 190.378906 207.910156 C 190.054688 207.921875 189.742188 207.871094 189.4375 207.753906 C 189.027344 207.605469 188.71875 207.339844 188.511719 206.953125 C 188.195312 206.316406 188.054688 205.648438 188.089844 204.9375 L 188.089844 204.429688 C 188.015625 203.582031 188.230469 202.820312 188.734375 202.136719 C 189.183594 201.652344 189.734375 201.429688 190.390625 201.472656 C 190.714844 201.472656 191.023438 201.539062 191.320312 201.671875 C 191.683594 201.820312 191.976562 202.054688 192.203125 202.375 C 192.488281 202.765625 192.632812 203.203125 192.640625 203.683594 Z M 192.640625 203.683594 " fill-opacity="1" fill-rule="nonzero"/><path fill="#1d4f3e" d="M 197.960938 202.09375 L 196.554688 202.09375 L 196.554688 205.417969 C 196.554688 205.796875 196.554688 206.105469 196.554688 206.347656 C 196.570312 206.539062 196.609375 206.726562 196.667969 206.910156 C 196.695312 207.039062 196.761719 207.140625 196.867188 207.21875 C 196.964844 207.292969 197.078125 207.328125 197.203125 207.320312 C 197.382812 207.316406 197.550781 207.273438 197.707031 207.191406 C 197.875 207.109375 198.023438 207 198.15625 206.867188 L 198.355469 207.25 C 198.242188 207.359375 198.144531 207.445312 198.074219 207.53125 C 197.816406 207.75 197.523438 207.851562 197.1875 207.839844 C 196.855469 207.851562 196.589844 207.726562 196.386719 207.460938 C 196.21875 207.191406 196.121094 206.902344 196.09375 206.585938 C 196.066406 206.253906 196.066406 205.917969 196.09375 205.585938 L 196.09375 202.09375 L 195.378906 202.09375 L 195.378906 201.558594 L 196.09375 201.558594 L 196.09375 200.148438 L 196.585938 200.148438 L 196.585938 201.640625 L 198.085938 201.640625 Z M 197.960938 202.09375 " fill-opacity="1" fill-rule="nonzero"/><path fill="#1d4f3e" d="M 203.101562 201.402344 C 203.425781 201.398438 203.746094 201.449219 204.054688 201.558594 C 204.457031 201.71875 204.761719 201.988281 204.96875 202.375 C 205.285156 203.007812 205.425781 203.679688 205.386719 204.390625 L 205.386719 204.894531 C 205.460938 205.742188 205.246094 206.507812 204.742188 207.191406 C 204.292969 207.671875 203.742188 207.886719 203.085938 207.839844 C 202.761719 207.851562 202.449219 207.800781 202.144531 207.683594 C 201.734375 207.535156 201.425781 207.269531 201.21875 206.882812 C 200.902344 206.246094 200.761719 205.578125 200.796875 204.867188 L 200.796875 204.359375 C 200.730469 203.515625 200.945312 202.75 201.441406 202.066406 C 201.894531 201.585938 202.445312 201.367188 203.101562 201.402344 Z M 201.289062 204.613281 C 201.257812 205 201.257812 205.382812 201.289062 205.769531 C 201.332031 206.066406 201.429688 206.34375 201.582031 206.601562 C 201.714844 206.839844 201.902344 207.015625 202.144531 207.136719 C 202.425781 207.269531 202.71875 207.332031 203.03125 207.320312 C 203.339844 207.347656 203.628906 207.285156 203.902344 207.136719 C 204.175781 206.988281 204.386719 206.777344 204.53125 206.5 C 204.65625 206.246094 204.734375 205.980469 204.769531 205.699219 C 204.796875 205.34375 204.796875 204.984375 204.769531 204.628906 C 204.773438 204.246094 204.746094 203.863281 204.6875 203.488281 C 204.640625 203.195312 204.546875 202.917969 204.40625 202.65625 C 204.269531 202.421875 204.082031 202.246094 203.84375 202.121094 C 203.558594 201.984375 203.261719 201.925781 202.945312 201.9375 C 202.507812 201.914062 202.117188 202.039062 201.78125 202.316406 C 201.503906 202.585938 201.328125 202.910156 201.261719 203.289062 C 201.21875 203.734375 201.226562 204.175781 201.289062 204.613281 Z M 201.289062 204.613281 " fill-opacity="1" fill-rule="nonzero"/><path fill="#1d4f3e" d="M 211.820312 201.570312 L 211.722656 202.121094 C 211.609375 202.058594 211.492188 202.011719 211.371094 201.980469 C 211.230469 201.964844 211.089844 201.964844 210.949219 201.980469 C 210.734375 201.980469 210.535156 202.03125 210.34375 202.136719 C 210.128906 202.238281 209.9375 202.375 209.769531 202.542969 C 209.597656 202.710938 209.457031 202.902344 209.347656 203.121094 C 209.238281 203.3125 209.183594 203.519531 209.179688 203.742188 L 209.179688 207.726562 L 208.6875 207.726562 L 208.6875 201.671875 L 209.179688 201.542969 L 209.179688 202.613281 C 209.265625 202.460938 209.367188 202.320312 209.488281 202.191406 C 209.621094 202.050781 209.773438 201.929688 209.9375 201.824219 C 210.101562 201.710938 210.28125 201.621094 210.472656 201.558594 C 210.652344 201.484375 210.839844 201.449219 211.03125 201.445312 C 211.21875 201.453125 211.402344 201.484375 211.582031 201.542969 Z M 211.820312 201.570312 " fill-opacity="1" fill-rule="nonzero"/><path fill="#1d4f3e" d="M 218.320312 201.628906 L 218.320312 205.417969 C 218.304688 205.726562 218.304688 206.035156 218.320312 206.347656 C 218.332031 206.539062 218.363281 206.726562 218.417969 206.910156 C 218.457031 207.035156 218.527344 207.140625 218.628906 207.21875 C 218.730469 207.292969 218.84375 207.328125 218.964844 207.320312 C 219.144531 207.316406 219.3125 207.273438 219.472656 207.191406 C 219.636719 207.105469 219.785156 206.996094 219.921875 206.867188 L 220.105469 207.25 C 219.953125 207.4375 219.769531 207.585938 219.554688 207.699219 C 219.363281 207.796875 219.15625 207.84375 218.9375 207.839844 C 218.601562 207.859375 218.335938 207.730469 218.136719 207.460938 C 217.960938 207.183594 217.859375 206.882812 217.828125 206.558594 C 217.726562 206.734375 217.613281 206.902344 217.492188 207.066406 C 217.390625 207.191406 217.277344 207.308594 217.15625 207.417969 C 216.839844 207.703125 216.472656 207.847656 216.046875 207.839844 C 215.710938 207.847656 215.402344 207.765625 215.117188 207.585938 C 214.835938 207.40625 214.617188 207.164062 214.460938 206.867188 C 214.277344 206.550781 214.152344 206.214844 214.078125 205.855469 C 213.992188 205.445312 213.949219 205.03125 213.953125 204.613281 C 213.953125 204.105469 214.027344 203.609375 214.179688 203.121094 C 214.308594 202.648438 214.554688 202.246094 214.910156 201.910156 C 215.273438 201.558594 215.707031 201.386719 216.214844 201.402344 C 216.488281 201.402344 216.757812 201.449219 217.015625 201.542969 C 217.292969 201.621094 217.550781 201.746094 217.785156 201.910156 L 217.785156 201.5 Z M 217.828125 205.855469 L 217.828125 202.445312 C 217.597656 202.269531 217.34375 202.132812 217.070312 202.035156 C 216.796875 201.945312 216.515625 201.902344 216.226562 201.910156 C 215.808594 201.902344 215.460938 202.054688 215.175781 202.359375 C 214.90625 202.660156 214.726562 203.007812 214.640625 203.402344 C 214.539062 203.789062 214.488281 204.183594 214.488281 204.585938 C 214.484375 204.941406 214.515625 205.292969 214.585938 205.640625 C 214.632812 205.9375 214.726562 206.222656 214.867188 206.488281 C 214.980469 206.726562 215.144531 206.921875 215.359375 207.078125 C 215.5625 207.226562 215.792969 207.296875 216.046875 207.289062 C 216.457031 207.277344 216.808594 207.121094 217.097656 206.824219 C 217.402344 206.542969 217.636719 206.207031 217.800781 205.824219 Z M 217.828125 205.855469 " fill-opacity="1" fill-rule="nonzero"/><path fill="#1d4f3e" d="M 222.40625 207.179688 L 222.53125 206.671875 C 222.835938 206.898438 223.167969 207.066406 223.53125 207.179688 C 223.816406 207.269531 224.113281 207.316406 224.414062 207.320312 C 224.828125 207.339844 225.207031 207.230469 225.550781 206.996094 C 225.695312 206.882812 225.808594 206.746094 225.890625 206.582031 C 225.96875 206.421875 226.011719 206.246094 226.011719 206.066406 C 226.011719 205.882812 225.96875 205.710938 225.890625 205.546875 C 225.808594 205.382812 225.695312 205.246094 225.550781 205.136719 C 225.199219 204.917969 224.820312 204.777344 224.414062 204.710938 C 223.941406 204.65625 223.515625 204.484375 223.136719 204.191406 C 222.769531 203.859375 222.601562 203.445312 222.632812 202.953125 C 222.628906 202.714844 222.679688 202.488281 222.785156 202.277344 C 222.886719 202.074219 223.03125 201.914062 223.222656 201.796875 C 223.648438 201.519531 224.117188 201.386719 224.625 201.402344 C 224.953125 201.402344 225.269531 201.460938 225.578125 201.570312 C 225.800781 201.644531 226.011719 201.746094 226.210938 201.867188 L 226.097656 202.347656 C 225.84375 202.203125 225.578125 202.089844 225.300781 202.007812 C 225.085938 201.953125 224.871094 201.921875 224.652344 201.910156 C 224.289062 201.894531 223.9375 201.960938 223.601562 202.105469 C 223.433594 202.1875 223.304688 202.304688 223.214844 202.464844 C 223.121094 202.625 223.082031 202.796875 223.09375 202.980469 C 223.0625 203.324219 223.179688 203.605469 223.445312 203.824219 C 223.734375 204.035156 224.058594 204.15625 224.414062 204.191406 C 224.925781 204.28125 225.394531 204.472656 225.820312 204.769531 C 226.011719 204.917969 226.167969 205.101562 226.28125 205.320312 C 226.398438 205.539062 226.453125 205.773438 226.449219 206.023438 C 226.472656 206.472656 226.335938 206.867188 226.042969 207.207031 C 225.769531 207.484375 225.441406 207.667969 225.058594 207.753906 C 224.839844 207.777344 224.621094 207.777344 224.398438 207.753906 C 224.230469 207.769531 224.0625 207.769531 223.894531 207.753906 C 223.355469 207.675781 222.859375 207.484375 222.40625 207.179688 Z M 222.40625 207.179688 " fill-opacity="1" fill-rule="nonzero"/><path fill="#1d4f3e" d="M 235.03125 199.753906 L 235.03125 199.261719 L 235.5625 199.261719 L 235.5625 207.714844 L 235.070312 207.714844 Z M 235.03125 199.753906 " fill-opacity="1" fill-rule="nonzero"/><path fill="#1d4f3e" d="M 243.214844 204.066406 L 243.214844 205.558594 C 243.199219 205.84375 243.199219 206.132812 243.214844 206.417969 C 243.222656 206.597656 243.261719 206.769531 243.328125 206.9375 C 243.367188 207.054688 243.433594 207.152344 243.523438 207.234375 C 243.625 207.296875 243.730469 207.324219 243.847656 207.320312 C 244 207.328125 244.148438 207.292969 244.28125 207.21875 C 244.398438 207.140625 244.503906 207.046875 244.589844 206.9375 L 244.789062 207.320312 C 244.660156 207.527344 244.480469 207.675781 244.253906 207.769531 C 244.113281 207.792969 243.972656 207.792969 243.832031 207.769531 C 243.496094 207.789062 243.230469 207.660156 243.03125 207.390625 C 242.855469 207.125 242.753906 206.835938 242.738281 206.515625 C 242.710938 206.183594 242.710938 205.847656 242.738281 205.515625 L 242.738281 204.066406 C 242.761719 203.753906 242.761719 203.445312 242.738281 203.136719 C 242.691406 202.910156 242.625 202.695312 242.527344 202.488281 C 242.421875 202.308594 242.28125 202.167969 242.105469 202.066406 C 241.894531 201.972656 241.675781 201.929688 241.445312 201.9375 C 241.167969 201.9375 240.902344 201.992188 240.644531 202.105469 C 240.421875 202.199219 240.222656 202.328125 240.042969 202.488281 C 239.847656 202.636719 239.683594 202.816406 239.550781 203.023438 L 239.550781 207.683594 L 239.058594 207.683594 L 239.058594 201.628906 L 239.550781 201.5 L 239.550781 202.445312 C 239.703125 202.265625 239.871094 202.105469 240.054688 201.964844 C 240.253906 201.832031 240.457031 201.714844 240.675781 201.613281 C 240.914062 201.507812 241.167969 201.457031 241.433594 201.457031 C 241.761719 201.449219 242.074219 201.515625 242.375 201.65625 C 242.625 201.789062 242.816406 201.984375 242.949219 202.234375 C 243.082031 202.484375 243.171875 202.753906 243.214844 203.035156 C 243.238281 203.378906 243.238281 203.722656 243.214844 204.066406 Z M 243.214844 204.066406 " fill-opacity="1" fill-rule="nonzero"/><path fill="#1d4f3e" d="M 252.132812 199.105469 L 252.132812 205.417969 C 252.113281 205.726562 252.113281 206.035156 252.132812 206.347656 C 252.140625 206.539062 252.175781 206.726562 252.230469 206.910156 C 252.265625 207.035156 252.335938 207.140625 252.441406 207.21875 C 252.539062 207.292969 252.652344 207.328125 252.777344 207.320312 C 252.980469 207.304688 253.175781 207.25 253.351562 207.148438 C 253.53125 207.054688 253.695312 206.945312 253.84375 206.8125 L 254.027344 207.191406 C 253.703125 207.597656 253.28125 207.8125 252.765625 207.839844 C 252.429688 207.859375 252.160156 207.730469 251.964844 207.460938 C 251.78125 207.1875 251.679688 206.886719 251.65625 206.558594 L 251.304688 207.066406 C 251.207031 207.191406 251.097656 207.308594 250.980469 207.417969 C 250.660156 207.703125 250.285156 207.84375 249.855469 207.839844 C 249.523438 207.847656 249.214844 207.761719 248.929688 207.585938 C 248.648438 207.40625 248.429688 207.164062 248.269531 206.867188 C 248.089844 206.550781 247.960938 206.214844 247.890625 205.855469 C 247.804688 205.445312 247.761719 205.03125 247.765625 204.613281 C 247.765625 204.105469 247.839844 203.609375 247.988281 203.121094 C 248.121094 202.648438 248.363281 202.246094 248.71875 201.910156 C 249.085938 201.558594 249.519531 201.386719 250.027344 201.402344 C 250.300781 201.402344 250.566406 201.449219 250.824219 201.542969 C 251.105469 201.621094 251.359375 201.746094 251.597656 201.910156 L 251.597656 199.203125 Z M 251.640625 205.824219 L 251.640625 202.445312 C 251.410156 202.269531 251.15625 202.132812 250.882812 202.035156 C 250.609375 201.945312 250.328125 201.902344 250.039062 201.910156 C 249.621094 201.902344 249.269531 202.054688 248.988281 202.359375 C 248.714844 202.660156 248.539062 203.007812 248.453125 203.402344 C 248.34375 203.789062 248.292969 204.183594 248.296875 204.585938 C 248.292969 204.941406 248.328125 205.292969 248.398438 205.640625 C 248.445312 205.9375 248.539062 206.222656 248.675781 206.488281 C 248.792969 206.726562 248.957031 206.921875 249.167969 207.078125 C 249.375 207.226562 249.605469 207.296875 249.855469 207.289062 C 250.269531 207.277344 250.621094 207.121094 250.910156 206.824219 C 251.226562 206.542969 251.46875 206.210938 251.640625 205.824219 Z M 251.640625 205.824219 " fill-opacity="1" fill-rule="nonzero"/><path fill="#1d4f3e" d="M 257.480469 201.445312 L 257.480469 205.417969 C 257.464844 205.726562 257.464844 206.035156 257.480469 206.347656 C 257.496094 206.539062 257.53125 206.726562 257.59375 206.910156 C 257.621094 207.039062 257.6875 207.140625 257.789062 207.21875 C 257.890625 207.292969 258.003906 207.328125 258.128906 207.320312 C 258.335938 207.308594 258.53125 207.25 258.71875 207.148438 C 258.886719 207.054688 259.046875 206.941406 259.195312 206.8125 L 259.378906 207.191406 C 259.046875 207.601562 258.621094 207.816406 258.097656 207.839844 C 257.742188 207.859375 257.464844 207.71875 257.269531 207.417969 C 257.105469 207.113281 257.011719 206.789062 256.988281 206.445312 C 256.972656 206.167969 256.972656 205.890625 256.988281 205.613281 L 256.988281 202.09375 L 256.414062 202.09375 L 256.414062 201.558594 L 256.960938 201.558594 Z M 257.480469 198.867188 L 257.972656 198.867188 L 257.46875 200.277344 L 256.976562 200.277344 Z M 257.480469 198.867188 " fill-opacity="1" fill-rule="nonzero"/><path fill="#1d4f3e" d="M 265.542969 201.5 L 266.03125 201.628906 L 266.03125 207.347656 C 266.039062 207.789062 265.988281 208.226562 265.878906 208.65625 C 265.789062 208.988281 265.628906 209.285156 265.402344 209.542969 C 265.222656 209.761719 265 209.925781 264.742188 210.039062 C 264.46875 210.140625 264.1875 210.191406 263.898438 210.191406 C 263.636719 210.199219 263.378906 210.167969 263.125 210.109375 C 263.042969 210.09375 262.960938 210.066406 262.886719 210.023438 C 262.792969 209.984375 262.707031 209.9375 262.621094 209.882812 L 262.621094 209.320312 C 262.777344 209.414062 262.941406 209.492188 263.113281 209.558594 C 263.347656 209.644531 263.589844 209.6875 263.84375 209.683594 C 264.335938 209.726562 264.738281 209.550781 265.050781 209.164062 C 265.441406 208.574219 265.605469 207.925781 265.542969 207.21875 L 265.542969 206.671875 C 265.398438 206.9375 265.21875 207.171875 264.992188 207.375 C 264.660156 207.691406 264.261719 207.851562 263.800781 207.855469 C 263.464844 207.863281 263.15625 207.777344 262.875 207.601562 C 262.589844 207.417969 262.371094 207.179688 262.214844 206.882812 C 262.03125 206.566406 261.90625 206.226562 261.835938 205.867188 C 261.746094 205.460938 261.703125 205.046875 261.707031 204.628906 C 261.707031 204.121094 261.785156 203.621094 261.933594 203.136719 C 262.0625 202.664062 262.308594 202.257812 262.664062 201.921875 C 263.027344 201.570312 263.460938 201.402344 263.96875 201.417969 C 264.242188 201.414062 264.511719 201.460938 264.769531 201.558594 C 265.046875 201.636719 265.304688 201.757812 265.542969 201.921875 Z M 265.542969 205.824219 L 265.542969 202.445312 C 265.308594 202.269531 265.058594 202.132812 264.78125 202.035156 C 264.507812 201.945312 264.230469 201.902344 263.941406 201.910156 C 263.523438 201.902344 263.171875 202.054688 262.886719 202.359375 C 262.617188 202.660156 262.441406 203.007812 262.355469 203.402344 C 262.25 203.789062 262.199219 204.183594 262.199219 204.585938 C 262.195312 204.941406 262.226562 205.292969 262.296875 205.640625 C 262.347656 205.9375 262.441406 206.222656 262.578125 206.488281 C 262.691406 206.726562 262.855469 206.921875 263.070312 207.078125 C 263.277344 207.226562 263.503906 207.296875 263.757812 207.289062 C 264.171875 207.277344 264.523438 207.121094 264.8125 206.824219 C 265.125 206.542969 265.367188 206.210938 265.542969 205.824219 Z M 265.542969 205.824219 " fill-opacity="1" fill-rule="nonzero"/><path fill="#1d4f3e" d="M 273.082031 204.460938 L 269.148438 204.628906 C 269.085938 205.398438 269.253906 206.113281 269.65625 206.769531 C 269.808594 206.964844 270 207.105469 270.230469 207.191406 C 270.484375 207.28125 270.746094 207.324219 271.015625 207.320312 C 271.378906 207.308594 271.730469 207.242188 272.070312 207.121094 C 272.339844 207.027344 272.601562 206.914062 272.855469 206.785156 L 272.996094 207.261719 C 272.386719 207.621094 271.726562 207.816406 271.015625 207.839844 C 270.640625 207.851562 270.273438 207.792969 269.921875 207.65625 C 269.617188 207.535156 269.375 207.339844 269.191406 207.066406 C 268.984375 206.746094 268.847656 206.398438 268.785156 206.023438 C 268.691406 205.503906 268.648438 204.984375 268.660156 204.460938 C 268.59375 203.621094 268.796875 202.847656 269.261719 202.148438 C 269.714844 201.613281 270.289062 201.367188 270.988281 201.417969 C 271.546875 201.386719 272.054688 201.535156 272.503906 201.867188 C 273.011719 202.351562 273.238281 202.941406 273.179688 203.640625 C 273.191406 203.84375 273.191406 204.046875 273.179688 204.246094 Z M 269.164062 204.09375 L 272.675781 203.953125 L 272.675781 203.628906 C 272.699219 203.253906 272.621094 202.898438 272.433594 202.570312 C 272.269531 202.289062 272.03125 202.109375 271.71875 202.023438 C 271.460938 201.957031 271.199219 201.929688 270.933594 201.9375 C 270.4375 201.90625 270.019531 202.074219 269.683594 202.445312 C 269.363281 202.945312 269.203125 203.496094 269.207031 204.09375 Z M 269.164062 204.09375 " fill-opacity="1" fill-rule="nonzero"/><path fill="#1d4f3e" d="M 280.214844 204.066406 L 280.214844 205.558594 C 280.214844 205.910156 280.214844 206.191406 280.214844 206.417969 C 280.234375 206.59375 280.273438 206.769531 280.328125 206.9375 C 280.371094 207.054688 280.441406 207.15625 280.539062 207.234375 C 280.636719 207.296875 280.742188 207.324219 280.859375 207.320312 C 281.011719 207.328125 281.152344 207.292969 281.28125 207.21875 C 281.402344 207.140625 281.511719 207.046875 281.605469 206.9375 L 281.785156 207.320312 C 281.664062 207.527344 281.488281 207.675781 281.265625 207.769531 C 281.121094 207.792969 280.976562 207.792969 280.832031 207.769531 C 280.5 207.785156 280.238281 207.660156 280.046875 207.390625 C 279.867188 207.125 279.765625 206.832031 279.738281 206.515625 C 279.71875 206.183594 279.71875 205.847656 279.738281 205.515625 L 279.738281 204.066406 C 279.761719 203.753906 279.761719 203.445312 279.738281 203.136719 C 279.703125 202.90625 279.636719 202.691406 279.527344 202.488281 C 279.429688 202.304688 279.289062 202.160156 279.105469 202.066406 C 278.898438 201.96875 278.683594 201.929688 278.460938 201.9375 C 278.179688 201.9375 277.914062 201.992188 277.660156 202.105469 C 277.4375 202.199219 277.234375 202.328125 277.054688 202.488281 C 276.863281 202.636719 276.699219 202.816406 276.5625 203.023438 L 276.5625 207.683594 L 276.070312 207.683594 L 276.070312 201.628906 L 276.5625 201.5 L 276.5625 202.445312 C 276.714844 202.269531 276.878906 202.109375 277.054688 201.964844 C 277.253906 201.835938 277.457031 201.714844 277.671875 201.613281 C 277.914062 201.507812 278.167969 201.457031 278.429688 201.457031 C 278.765625 201.449219 279.082031 201.515625 279.386719 201.65625 C 279.632812 201.792969 279.824219 201.988281 279.960938 202.234375 C 280.09375 202.484375 280.183594 202.753906 280.226562 203.035156 C 280.246094 203.378906 280.242188 203.722656 280.214844 204.066406 Z M 280.214844 204.066406 " fill-opacity="1" fill-rule="nonzero"/><path fill="#1d4f3e" d="M 287.867188 201.628906 L 287.867188 205.417969 C 287.867188 205.796875 287.867188 206.105469 287.867188 206.347656 C 287.882812 206.539062 287.917969 206.726562 287.980469 206.910156 C 288.007812 207.039062 288.070312 207.140625 288.175781 207.21875 C 288.277344 207.292969 288.386719 207.328125 288.511719 207.320312 C 288.695312 207.316406 288.867188 207.273438 289.03125 207.191406 C 289.195312 207.101562 289.34375 206.992188 289.480469 206.867188 L 289.664062 207.25 C 289.503906 207.433594 289.316406 207.585938 289.101562 207.699219 C 288.910156 207.800781 288.703125 207.847656 288.484375 207.839844 C 288.152344 207.863281 287.890625 207.734375 287.699219 207.460938 C 287.507812 207.1875 287.40625 206.890625 287.390625 206.558594 C 287.28125 206.734375 287.164062 206.902344 287.039062 207.066406 C 286.945312 207.195312 286.839844 207.3125 286.714844 207.417969 C 286.394531 207.707031 286.023438 207.847656 285.59375 207.839844 C 285.257812 207.847656 284.949219 207.761719 284.664062 207.585938 C 284.390625 207.398438 284.171875 207.160156 284.003906 206.867188 C 283.835938 206.546875 283.710938 206.210938 283.640625 205.855469 C 283.550781 205.445312 283.511719 205.03125 283.515625 204.613281 C 283.507812 204.105469 283.582031 203.605469 283.738281 203.121094 C 283.863281 202.648438 284.105469 202.246094 284.453125 201.910156 C 284.820312 201.5625 285.257812 201.394531 285.761719 201.402344 C 286.039062 201.402344 286.3125 201.449219 286.574219 201.542969 C 286.851562 201.625 287.109375 201.746094 287.347656 201.910156 L 287.347656 201.5 Z M 287.375 205.855469 L 287.375 202.445312 C 287.144531 202.269531 286.890625 202.132812 286.617188 202.035156 C 286.34375 201.945312 286.0625 201.902344 285.773438 201.910156 C 285.355469 201.902344 285.003906 202.054688 284.722656 202.359375 C 284.453125 202.664062 284.269531 203.007812 284.175781 203.402344 C 284.070312 203.789062 284.019531 204.183594 284.019531 204.585938 C 284.023438 204.941406 284.054688 205.292969 284.117188 205.640625 C 284.171875 205.9375 284.265625 206.21875 284.398438 206.488281 C 284.523438 206.722656 284.691406 206.921875 284.902344 207.078125 C 285.105469 207.226562 285.328125 207.296875 285.578125 207.289062 C 285.996094 207.277344 286.351562 207.125 286.644531 206.824219 C 286.957031 206.542969 287.199219 206.207031 287.375 205.824219 Z M 287.375 205.855469 " fill-opacity="1" fill-rule="nonzero"/><path fill="#1d4f3e" d="M 291.335938 207.179688 L 291.335938 206.671875 C 291.636719 206.894531 291.960938 207.0625 292.316406 207.179688 C 292.605469 207.265625 292.902344 207.3125 293.203125 207.320312 C 293.621094 207.339844 294.007812 207.234375 294.355469 206.996094 C 294.5 206.882812 294.609375 206.746094 294.691406 206.582031 C 294.773438 206.421875 294.8125 206.246094 294.8125 206.066406 C 294.8125 205.882812 294.773438 205.710938 294.691406 205.546875 C 294.609375 205.382812 294.5 205.246094 294.355469 205.136719 C 294.003906 204.917969 293.625 204.777344 293.214844 204.710938 C 292.738281 204.65625 292.308594 204.480469 291.925781 204.191406 C 291.570312 203.855469 291.40625 203.441406 291.433594 202.953125 C 291.429688 202.714844 291.484375 202.488281 291.585938 202.277344 C 291.6875 202.078125 291.828125 201.917969 292.007812 201.796875 C 292.4375 201.523438 292.90625 201.390625 293.414062 201.402344 C 293.742188 201.402344 294.058594 201.460938 294.367188 201.570312 C 294.582031 201.648438 294.789062 201.746094 294.984375 201.867188 L 294.886719 202.347656 C 294.628906 202.199219 294.359375 202.085938 294.074219 202.007812 C 293.867188 201.953125 293.65625 201.921875 293.441406 201.910156 C 293.074219 201.894531 292.722656 201.960938 292.386719 202.105469 C 292.222656 202.1875 292.09375 202.304688 292.003906 202.464844 C 291.910156 202.625 291.871094 202.796875 291.882812 202.980469 C 291.851562 203.324219 291.96875 203.605469 292.234375 203.824219 C 292.519531 204.035156 292.835938 204.15625 293.1875 204.191406 C 293.699219 204.28125 294.167969 204.472656 294.59375 204.769531 C 294.785156 204.917969 294.941406 205.101562 295.054688 205.320312 C 295.171875 205.539062 295.226562 205.773438 295.222656 206.023438 C 295.238281 206.46875 295.105469 206.863281 294.816406 207.207031 C 294.539062 207.488281 294.207031 207.671875 293.820312 207.753906 C 293.605469 207.777344 293.390625 207.777344 293.175781 207.753906 C 293.007812 207.769531 292.835938 207.769531 292.667969 207.753906 C 292.183594 207.65625 291.738281 207.464844 291.335938 207.179688 Z M 291.335938 207.179688 " fill-opacity="1" fill-rule="nonzero"/><path fill="#1d4f3e" d="M 305.839844 207.390625 L 305.925781 206.867188 C 306.378906 207.042969 306.847656 207.175781 307.328125 207.261719 C 307.664062 207.316406 308 207.351562 308.339844 207.359375 C 308.691406 207.359375 309.03125 207.296875 309.363281 207.179688 C 309.714844 207.058594 310.015625 206.863281 310.277344 206.601562 C 310.535156 206.304688 310.660156 205.964844 310.65625 205.570312 C 310.664062 205.28125 310.609375 205.003906 310.488281 204.742188 C 310.375 204.503906 310.210938 204.3125 309.996094 204.164062 C 309.792969 204.019531 309.574219 203.914062 309.335938 203.839844 C 309.046875 203.738281 308.75 203.660156 308.453125 203.601562 C 308.035156 203.511719 307.628906 203.394531 307.230469 203.246094 C 306.851562 203.109375 306.53125 202.882812 306.273438 202.570312 C 306.003906 202.183594 305.875 201.75 305.894531 201.277344 C 305.890625 200.953125 305.949219 200.644531 306.078125 200.347656 C 306.207031 200.070312 306.386719 199.839844 306.625 199.65625 C 306.882812 199.457031 307.167969 199.316406 307.484375 199.234375 C 307.863281 199.125 308.253906 199.074219 308.648438 199.078125 C 308.878906 199.054688 309.105469 199.054688 309.335938 199.078125 C 309.796875 199.167969 310.238281 199.300781 310.667969 199.488281 L 310.667969 199.9375 C 310.277344 199.792969 309.875 199.683594 309.460938 199.613281 C 309.1875 199.558594 308.914062 199.53125 308.632812 199.527344 C 308.011719 199.488281 307.457031 199.65625 306.964844 200.035156 C 306.785156 200.175781 306.65625 200.347656 306.570312 200.558594 C 306.46875 200.765625 306.421875 200.988281 306.429688 201.21875 C 306.40625 201.582031 306.5 201.910156 306.710938 202.207031 C 306.808594 202.308594 306.921875 202.398438 307.046875 202.472656 C 307.199219 202.5625 307.359375 202.636719 307.523438 202.699219 C 307.722656 202.699219 307.902344 202.824219 308.101562 202.867188 L 308.523438 202.996094 L 308.773438 202.996094 L 309.25 203.121094 C 309.628906 203.203125 309.984375 203.339844 310.320312 203.53125 C 310.699219 203.765625 310.953125 204.097656 311.078125 204.53125 C 311.167969 204.808594 311.210938 205.09375 311.203125 205.390625 C 311.207031 205.691406 311.144531 205.984375 311.019531 206.261719 C 310.90625 206.558594 310.734375 206.8125 310.5 207.023438 C 310.234375 207.265625 309.929688 207.445312 309.589844 207.558594 C 309.1875 207.699219 308.777344 207.765625 308.351562 207.753906 C 307.984375 207.753906 307.621094 207.722656 307.257812 207.65625 C 306.777344 207.617188 306.304688 207.53125 305.839844 207.390625 Z M 305.839844 207.390625 " fill-opacity="1" fill-rule="nonzero"/><path fill="#1d4f3e" d="M 318.910156 204.460938 L 314.964844 204.628906 C 314.902344 205.398438 315.078125 206.113281 315.484375 206.769531 C 315.628906 206.96875 315.816406 207.109375 316.046875 207.191406 C 316.300781 207.28125 316.5625 207.324219 316.832031 207.320312 C 317.199219 207.3125 317.554688 207.246094 317.902344 207.121094 C 318.171875 207.027344 318.433594 206.914062 318.6875 206.785156 L 318.828125 207.261719 C 318.570312 207.414062 318.296875 207.535156 318.011719 207.628906 C 317.636719 207.765625 317.25 207.835938 316.847656 207.839844 C 316.464844 207.851562 316.097656 207.789062 315.738281 207.65625 C 315.441406 207.53125 315.203125 207.332031 315.023438 207.066406 C 314.808594 206.75 314.671875 206.402344 314.617188 206.023438 C 314.515625 205.507812 314.46875 204.984375 314.476562 204.460938 C 314.414062 203.617188 314.621094 202.847656 315.09375 202.148438 C 315.539062 201.617188 316.113281 201.371094 316.804688 201.417969 C 317.363281 201.386719 317.871094 201.535156 318.324219 201.867188 C 318.835938 202.347656 319.066406 202.941406 319.011719 203.640625 C 319.023438 203.84375 319.023438 204.046875 319.011719 204.246094 Z M 314.996094 204.09375 L 318.492188 203.953125 C 318.5 203.84375 318.5 203.734375 318.492188 203.628906 C 318.507812 203.253906 318.429688 202.902344 318.253906 202.570312 C 318.082031 202.296875 317.84375 202.113281 317.535156 202.023438 C 317.273438 201.960938 317.007812 201.933594 316.734375 201.9375 C 316.242188 201.902344 315.828125 202.074219 315.5 202.445312 C 315.160156 202.941406 314.992188 203.492188 314.996094 204.09375 Z M 314.996094 204.09375 " fill-opacity="1" fill-rule="nonzero"/><path fill="#1d4f3e" d="M 325.230469 201.558594 L 325.707031 201.558594 L 325.707031 207.347656 C 325.714844 207.789062 325.664062 208.226562 325.554688 208.65625 C 325.441406 208.972656 325.269531 209.25 325.035156 209.488281 C 324.851562 209.710938 324.625 209.875 324.359375 209.980469 C 324.09375 210.085938 323.816406 210.136719 323.53125 210.136719 C 323.308594 210.132812 323.089844 210.105469 322.871094 210.050781 C 322.65625 210.003906 322.449219 209.929688 322.253906 209.828125 L 322.253906 209.261719 C 322.449219 209.390625 322.660156 209.480469 322.886719 209.53125 C 323.082031 209.597656 323.28125 209.628906 323.488281 209.628906 C 323.976562 209.664062 324.375 209.492188 324.683594 209.109375 C 325.078125 208.519531 325.246094 207.871094 325.1875 207.164062 L 325.1875 206.867188 C 324.984375 207.082031 324.753906 207.265625 324.5 207.417969 C 324.136719 207.65625 323.742188 207.777344 323.308594 207.785156 C 322.976562 207.800781 322.664062 207.734375 322.367188 207.585938 C 322.121094 207.453125 321.929688 207.265625 321.789062 207.023438 C 321.65625 206.765625 321.566406 206.492188 321.523438 206.207031 C 321.476562 205.851562 321.453125 205.492188 321.453125 205.136719 L 321.453125 201.5 L 321.945312 201.628906 L 321.945312 205.261719 C 321.914062 205.582031 321.914062 205.902344 321.945312 206.21875 C 321.976562 206.449219 322.042969 206.664062 322.15625 206.867188 C 322.25 207.042969 322.382812 207.175781 322.5625 207.261719 C 322.773438 207.355469 322.992188 207.398438 323.222656 207.390625 C 323.753906 207.382812 324.222656 207.203125 324.625 206.855469 C 324.8125 206.691406 324.976562 206.507812 325.117188 206.304688 Z M 325.230469 201.558594 " fill-opacity="1" fill-rule="nonzero"/><path fill="#1d4f3e" d="M 333.007812 204.066406 L 333.007812 205.558594 C 333.007812 205.910156 333.007812 206.191406 333.007812 206.417969 C 333.03125 206.59375 333.070312 206.769531 333.121094 206.9375 C 333.164062 207.054688 333.234375 207.15625 333.332031 207.234375 C 333.429688 207.296875 333.539062 207.324219 333.65625 207.320312 C 333.804688 207.328125 333.945312 207.292969 334.078125 207.21875 C 334.199219 207.140625 334.304688 207.046875 334.398438 206.9375 L 334.582031 207.320312 C 334.457031 207.527344 334.285156 207.675781 334.0625 207.769531 C 333.917969 207.792969 333.773438 207.792969 333.628906 207.769531 C 333.296875 207.785156 333.035156 207.660156 332.839844 207.390625 C 332.664062 207.125 332.558594 206.832031 332.53125 206.515625 C 332.515625 206.183594 332.515625 205.847656 332.53125 205.515625 L 332.53125 204.066406 C 332.535156 203.753906 332.511719 203.441406 332.460938 203.136719 C 332.429688 202.90625 332.359375 202.691406 332.25 202.488281 C 332.152344 202.304688 332.015625 202.160156 331.828125 202.066406 C 331.625 201.96875 331.410156 201.929688 331.183594 201.9375 C 330.90625 201.9375 330.636719 201.992188 330.382812 202.105469 C 330.160156 202.199219 329.960938 202.328125 329.78125 202.488281 C 329.585938 202.636719 329.421875 202.816406 329.289062 203.023438 L 329.289062 207.683594 L 328.796875 207.683594 L 328.796875 201.628906 L 329.289062 201.5 L 329.289062 202.445312 C 329.4375 202.269531 329.601562 202.109375 329.78125 201.964844 C 329.976562 201.835938 330.183594 201.714844 330.398438 201.613281 C 330.640625 201.507812 330.890625 201.457031 331.15625 201.457031 C 331.488281 201.449219 331.808594 201.515625 332.109375 201.65625 C 332.355469 201.792969 332.546875 201.988281 332.6875 202.234375 C 332.820312 202.484375 332.90625 202.753906 332.9375 203.035156 C 332.992188 203.378906 333.015625 203.71875 333.007812 204.066406 Z M 333.007812 204.066406 " fill-opacity="1" fill-rule="nonzero"/><path fill="#1d4f3e" d="M 340.730469 204.460938 L 336.800781 204.628906 C 336.734375 205.398438 336.902344 206.113281 337.304688 206.769531 C 337.457031 206.964844 337.648438 207.105469 337.882812 207.191406 C 338.136719 207.28125 338.398438 207.324219 338.667969 207.320312 C 339.03125 207.308594 339.378906 207.242188 339.722656 207.121094 C 339.992188 207.027344 340.253906 206.914062 340.507812 206.785156 L 340.648438 207.261719 C 340.035156 207.621094 339.375 207.816406 338.667969 207.839844 C 338.289062 207.851562 337.925781 207.792969 337.574219 207.65625 C 337.269531 207.535156 337.023438 207.339844 336.84375 207.066406 C 336.632812 206.746094 336.5 206.398438 336.433594 206.023438 C 336.34375 205.503906 336.300781 204.984375 336.308594 204.460938 C 336.253906 203.621094 336.453125 202.851562 336.914062 202.148438 C 337.367188 201.613281 337.941406 201.367188 338.640625 201.417969 C 339.199219 201.386719 339.703125 201.535156 340.15625 201.867188 C 340.664062 202.351562 340.886719 202.941406 340.832031 203.640625 C 340.84375 203.84375 340.84375 204.046875 340.832031 204.246094 Z M 336.828125 204.09375 L 340.324219 203.953125 L 340.324219 203.628906 C 340.347656 203.253906 340.273438 202.902344 340.101562 202.570312 C 339.925781 202.292969 339.683594 202.109375 339.371094 202.023438 C 339.113281 201.957031 338.851562 201.929688 338.582031 201.9375 C 338.085938 201.90625 337.667969 202.074219 337.335938 202.445312 C 336.996094 202.941406 336.828125 203.492188 336.828125 204.09375 Z M 336.828125 204.09375 " fill-opacity="1" fill-rule="nonzero"/><path fill="#1d4f3e" d="M 351.066406 206.8125 L 351.25 207.191406 C 351.183594 207.304688 351.105469 207.410156 351.011719 207.503906 C 350.90625 207.59375 350.792969 207.671875 350.671875 207.742188 C 350.535156 207.8125 350.390625 207.847656 350.238281 207.839844 C 349.890625 207.847656 349.5625 207.773438 349.253906 207.613281 C 348.949219 207.441406 348.6875 207.214844 348.46875 206.9375 C 348.261719 206.683594 348.078125 206.410156 347.921875 206.121094 C 347.765625 205.824219 347.585938 205.460938 347.402344 205.023438 L 347.050781 205.53125 L 346.6875 206.035156 L 346.6875 207.683594 L 346.195312 207.683594 L 346.195312 199.234375 L 346.6875 199.132812 L 346.6875 205.261719 C 346.953125 204.894531 347.191406 204.570312 347.386719 204.277344 L 348.105469 203.277344 L 349.015625 202.023438 L 349.339844 201.570312 L 349.859375 201.699219 L 347.726562 204.628906 L 348.035156 205.25 C 348.242188 205.671875 348.484375 206.078125 348.765625 206.460938 C 349 206.8125 349.308594 207.078125 349.691406 207.261719 C 349.875 207.347656 350.066406 207.386719 350.265625 207.390625 C 350.386719 207.386719 350.496094 207.359375 350.601562 207.304688 C 350.796875 207.179688 350.953125 207.015625 351.066406 206.8125 Z M 351.066406 206.8125 " fill-opacity="1" fill-rule="nonzero"/><path fill="#1d4f3e" d="M 359.253906 207.25 C 359.09375 207.433594 358.90625 207.585938 358.691406 207.699219 C 358.496094 207.800781 358.292969 207.847656 358.074219 207.839844 C 357.894531 207.84375 357.722656 207.804688 357.566406 207.714844 C 357.414062 207.625 357.296875 207.503906 357.214844 207.347656 C 357.132812 207.175781 357.074219 206.996094 357.035156 206.8125 L 357.035156 206.882812 C 356.878906 207.042969 356.710938 207.1875 356.527344 207.320312 C 356.261719 207.515625 355.972656 207.667969 355.65625 207.769531 C 355.480469 207.792969 355.300781 207.792969 355.125 207.769531 C 354.792969 207.789062 354.480469 207.722656 354.183594 207.574219 C 353.9375 207.441406 353.742188 207.253906 353.609375 207.007812 C 353.46875 206.753906 353.378906 206.480469 353.339844 206.191406 C 353.28125 205.835938 353.253906 205.480469 353.257812 205.121094 L 353.257812 201.5 L 353.75 201.628906 L 353.75 205.261719 C 353.746094 205.574219 353.769531 205.882812 353.820312 206.191406 C 353.851562 206.421875 353.921875 206.636719 354.027344 206.839844 C 354.128906 207.015625 354.269531 207.152344 354.449219 207.25 C 354.652344 207.351562 354.867188 207.398438 355.097656 207.390625 C 355.574219 207.386719 356 207.234375 356.375 206.9375 C 356.617188 206.75 356.828125 206.527344 357.007812 206.277344 C 357.007812 206.035156 357.007812 205.769531 357.007812 205.460938 L 357.007812 201.558594 L 357.496094 201.558594 L 357.496094 202.964844 C 357.496094 203.21875 357.496094 203.417969 357.496094 203.570312 L 357.496094 205.359375 C 357.480469 205.671875 357.480469 205.980469 357.496094 206.289062 C 357.5 206.484375 357.535156 206.671875 357.59375 206.855469 C 357.625 206.980469 357.691406 207.082031 357.796875 207.15625 C 357.898438 207.234375 358.015625 207.269531 358.144531 207.261719 C 358.324219 207.265625 358.492188 207.222656 358.648438 207.136719 C 358.816406 207.050781 358.964844 206.945312 359.097656 206.8125 Z M 359.253906 207.25 " fill-opacity="1" fill-rule="nonzero"/><path fill="#1d4f3e" d="M 366.945312 204.066406 L 366.945312 205.558594 C 366.929688 205.84375 366.929688 206.132812 366.945312 206.417969 C 366.957031 206.597656 366.992188 206.769531 367.058594 206.9375 C 367.085938 207.058594 367.144531 207.15625 367.246094 207.230469 C 367.34375 207.300781 367.457031 207.332031 367.578125 207.320312 C 367.730469 207.328125 367.867188 207.292969 368 207.21875 C 368.121094 207.140625 368.230469 207.046875 368.324219 206.9375 L 368.519531 207.320312 C 368.386719 207.523438 368.210938 207.675781 367.984375 207.769531 C 367.839844 207.796875 367.695312 207.796875 367.550781 207.769531 C 367.21875 207.785156 366.957031 207.660156 366.765625 207.390625 C 366.585938 207.125 366.484375 206.832031 366.457031 206.515625 C 366.4375 206.183594 366.4375 205.847656 366.457031 205.515625 L 366.457031 204.066406 C 366.457031 203.753906 366.433594 203.441406 366.386719 203.136719 C 366.355469 202.90625 366.285156 202.691406 366.175781 202.488281 C 366.078125 202.308594 365.945312 202.167969 365.769531 202.066406 C 365.558594 201.972656 365.335938 201.929688 365.109375 201.9375 C 364.828125 201.9375 364.5625 201.992188 364.308594 202.105469 C 364.085938 202.199219 363.882812 202.328125 363.703125 202.488281 C 363.511719 202.636719 363.347656 202.816406 363.210938 203.023438 L 363.210938 207.683594 L 362.722656 207.683594 L 362.722656 201.628906 L 363.210938 201.5 L 363.210938 202.445312 C 363.363281 202.269531 363.527344 202.109375 363.703125 201.964844 C 363.902344 201.835938 364.105469 201.714844 364.320312 201.613281 C 364.5625 201.507812 364.816406 201.457031 365.078125 201.457031 C 365.414062 201.449219 365.730469 201.515625 366.035156 201.65625 C 366.28125 201.792969 366.472656 201.988281 366.609375 202.234375 C 366.742188 202.484375 366.832031 202.753906 366.875 203.035156 C 366.921875 203.378906 366.945312 203.71875 366.945312 204.066406 Z M 366.945312 204.066406 " fill-opacity="1" fill-rule="nonzero"/><path fill="#e25251" d="M 63.023438 217.660156 L 0.820312 217.375 L 0.820312 205.121094 L 7.5625 196.949219 L 7.5625 180.46875 L 18.375 167.507812 L 29.183594 180.46875 L 29.183594 196.667969 L 31.992188 200.332031 L 34.800781 196.667969 L 34.800781 180.46875 L 45.613281 167.507812 L 56.425781 180.46875 L 56.425781 196.949219 L 63.164062 205.121094 L 63.164062 217.660156 Z M 1.945312 216.25 L 61.902344 216.53125 L 61.902344 205.542969 L 55.160156 197.375 L 55.160156 180.890625 L 45.472656 169.199219 L 35.785156 180.890625 L 35.785156 196.949219 L 31.851562 202.164062 L 27.921875 196.949219 L 27.921875 180.890625 L 18.234375 169.199219 L 8.542969 180.890625 L 8.542969 197.375 L 1.804688 205.542969 L 1.804688 216.25 Z M 1.945312 216.25 " fill-opacity="1" fill-rule="nonzero"/><path fill="#b6c475" d="M 57.40625 217.660156 L 33.539062 217.660156 C 33.386719 217.648438 33.257812 217.589844 33.152344 217.484375 C 33.042969 217.375 32.984375 217.246094 32.976562 217.09375 L 32.976562 211.460938 C 32.957031 211.296875 33.003906 211.15625 33.117188 211.039062 L 41.542969 200.894531 L 41.542969 188.78125 C 41.523438 188.617188 41.570312 188.476562 41.679688 188.359375 L 45.050781 184.273438 C 45.167969 184.160156 45.308594 184.113281 45.472656 184.132812 C 45.613281 184.132812 45.753906 184.273438 45.894531 184.414062 L 49.265625 188.78125 C 49.347656 188.855469 49.394531 188.949219 49.40625 189.0625 L 49.40625 201.035156 L 57.828125 211.179688 C 57.941406 211.296875 57.988281 211.4375 57.96875 211.601562 L 57.96875 217.234375 C 57.875 217.503906 57.6875 217.644531 57.40625 217.660156 M 34.097656 216.53125 L 56.707031 216.53125 L 56.707031 211.601562 L 48.28125 201.457031 C 48.167969 201.339844 48.121094 201.199219 48.140625 201.035156 L 48.140625 189.203125 L 45.332031 185.539062 L 42.523438 188.921875 L 42.523438 201.035156 C 42.542969 201.199219 42.496094 201.339844 42.382812 201.457031 L 33.957031 211.601562 L 33.957031 216.53125 Z M 34.097656 216.53125 " fill-opacity="1" fill-rule="nonzero"/><path fill="#b6c475" d="M 30.167969 217.660156 L 6.4375 217.660156 C 6.289062 217.648438 6.160156 217.589844 6.050781 217.484375 C 5.945312 217.375 5.886719 217.246094 5.875 217.09375 L 5.875 211.460938 C 5.855469 211.296875 5.902344 211.15625 6.015625 211.039062 L 14.441406 200.894531 L 14.441406 188.78125 C 14.421875 188.617188 14.46875 188.476562 14.582031 188.359375 L 17.953125 184.273438 C 18.09375 184.132812 18.234375 183.992188 18.375 184.132812 C 18.511719 184.273438 18.652344 184.273438 18.792969 184.414062 L 22.164062 188.78125 C 22.246094 188.855469 22.292969 188.949219 22.304688 189.0625 L 22.304688 201.035156 L 30.730469 211.179688 C 30.84375 211.296875 30.890625 211.4375 30.871094 211.601562 L 30.871094 217.234375 C 30.6875 217.460938 30.453125 217.601562 30.167969 217.660156 M 7 216.53125 L 29.605469 216.53125 L 29.605469 211.601562 L 21.179688 201.457031 C 21.066406 201.339844 21.019531 201.199219 21.039062 201.035156 L 21.039062 189.203125 L 18.234375 185.539062 L 15.425781 188.921875 L 15.425781 201.035156 C 15.445312 201.199219 15.398438 201.339844 15.285156 201.457031 L 6.859375 211.601562 L 6.859375 216.53125 Z M 7 216.53125 " fill-opacity="1" fill-rule="nonzero"/><path fill="#1d4f3e" d="M 62.460938 217.660156 L 1.382812 217.375 C 1.234375 217.367188 1.105469 217.308594 0.996094 217.199219 C 0.890625 217.09375 0.832031 216.964844 0.820312 216.8125 L 0.820312 172.441406 C 0.800781 172.277344 0.847656 172.136719 0.960938 172.015625 L 14.441406 155.816406 L 14.441406 143.703125 C 14.421875 143.539062 14.46875 143.398438 14.582031 143.28125 L 17.953125 139.195312 C 18.234375 138.914062 18.652344 138.914062 18.792969 139.195312 L 22.164062 143.28125 C 22.277344 143.398438 22.324219 143.539062 22.304688 143.703125 L 22.304688 155.816406 L 31.992188 167.507812 L 41.679688 155.816406 L 41.679688 143.703125 C 41.660156 143.539062 41.707031 143.398438 41.820312 143.28125 L 45.191406 139.195312 C 45.308594 139.082031 45.449219 139.035156 45.613281 139.054688 C 45.753906 139.054688 45.894531 139.195312 46.035156 139.195312 L 49.40625 143.28125 C 49.515625 143.398438 49.5625 143.539062 49.542969 143.703125 L 49.542969 155.816406 L 63.023438 172.015625 C 63.136719 172.136719 63.183594 172.277344 63.164062 172.441406 L 63.164062 217.09375 C 63.183594 217.257812 63.136719 217.398438 63.023438 217.519531 C 62.851562 217.617188 62.664062 217.664062 62.460938 217.660156 M 1.945312 216.25 L 61.902344 216.53125 L 61.902344 172.722656 L 48.421875 156.382812 C 48.308594 156.261719 48.261719 156.121094 48.28125 155.957031 L 48.28125 143.84375 L 45.472656 140.464844 L 42.664062 143.84375 L 42.664062 155.957031 C 42.683594 156.121094 42.636719 156.261719 42.523438 156.382812 L 32.273438 168.636719 C 31.992188 168.917969 31.570312 168.917969 31.429688 168.636719 L 21.179688 156.382812 C 21.066406 156.261719 21.019531 156.121094 21.039062 155.957031 L 21.039062 143.84375 L 18.234375 140.464844 L 15.425781 143.84375 L 15.425781 155.957031 C 15.445312 156.121094 15.398438 156.261719 15.285156 156.382812 L 1.945312 172.722656 Z M 1.945312 216.25 " fill-opacity="1" fill-rule="nonzero"/><path fill="#b6c475" d="M 31.851562 155.394531 C 31.710938 155.394531 31.570312 155.253906 31.429688 155.253906 L 27.640625 150.605469 C 27.542969 150.46875 27.507812 150.320312 27.535156 150.152344 C 27.5625 149.988281 27.644531 149.859375 27.78125 149.761719 C 27.917969 149.664062 28.066406 149.628906 28.230469 149.65625 C 28.394531 149.683594 28.527344 149.765625 28.625 149.902344 L 31.992188 153.984375 L 35.363281 149.902344 C 35.503906 149.621094 35.925781 149.621094 36.207031 149.761719 C 36.488281 149.902344 36.488281 150.324219 36.347656 150.605469 L 32.554688 155.253906 C 32.273438 155.253906 32.132812 155.394531 31.851562 155.394531 " fill-opacity="1" fill-rule="nonzero"/><path fill="#b6c475" d="M 1.382812 159.761719 C 1.222656 159.78125 1.082031 159.734375 0.960938 159.621094 C 0.839844 159.515625 0.765625 159.382812 0.738281 159.222656 C 0.710938 159.0625 0.738281 158.914062 0.820312 158.777344 L 7.703125 150.605469 C 7.84375 150.324219 8.261719 150.324219 8.542969 150.464844 C 8.824219 150.605469 8.824219 151.027344 8.683594 151.308594 L 1.945312 159.480469 C 1.664062 159.621094 1.523438 159.761719 1.382812 159.761719 " fill-opacity="1" fill-rule="nonzero"/><path fill="#b6c475" d="M 62.460938 159.761719 C 62.300781 159.78125 62.160156 159.734375 62.042969 159.621094 L 55.300781 151.449219 C 55.203125 151.316406 55.167969 151.164062 55.195312 151 C 55.222656 150.832031 55.304688 150.703125 55.441406 150.605469 C 55.578125 150.507812 55.726562 150.472656 55.890625 150.5 C 56.058594 150.527344 56.1875 150.609375 56.285156 150.746094 L 63.023438 158.917969 C 63.105469 159.054688 63.136719 159.207031 63.109375 159.363281 C 63.082031 159.523438 63.007812 159.65625 62.882812 159.761719 C 62.742188 159.621094 62.601562 159.761719 62.460938 159.761719 " fill-opacity="1" fill-rule="nonzero"/><path fill="#b6c475" d="M 8.121094 136.097656 C 7.960938 136.117188 7.820312 136.070312 7.703125 135.957031 C 7.421875 135.8125 7.421875 135.390625 7.5625 135.109375 L 17.8125 122.855469 C 18.09375 122.574219 18.511719 122.574219 18.652344 122.855469 L 28.902344 135.109375 C 29 135.246094 29.035156 135.398438 29.007812 135.5625 C 28.980469 135.726562 28.898438 135.859375 28.765625 135.957031 C 28.628906 136.050781 28.476562 136.085938 28.3125 136.058594 C 28.148438 136.03125 28.019531 135.949219 27.921875 135.8125 L 18.234375 123.980469 L 8.542969 135.8125 C 8.402344 135.957031 8.261719 136.097656 8.121094 136.097656 " fill-opacity="1" fill-rule="nonzero"/><path fill="#b6c475" d="M 35.222656 136.097656 C 35.058594 136.117188 34.917969 136.070312 34.800781 135.957031 C 34.519531 135.8125 34.519531 135.390625 34.660156 135.109375 L 44.910156 122.855469 C 45.191406 122.574219 45.613281 122.574219 45.753906 122.855469 L 56.003906 135.109375 C 56.101562 135.246094 56.136719 135.398438 56.109375 135.5625 C 56.082031 135.726562 56 135.859375 55.863281 135.957031 C 55.726562 136.050781 55.578125 136.085938 55.414062 136.058594 C 55.25 136.03125 55.117188 135.949219 55.019531 135.8125 L 45.332031 123.980469 L 35.785156 135.8125 C 35.640625 135.996094 35.453125 136.089844 35.222656 136.097656 " fill-opacity="1" fill-rule="nonzero"/><g clip-path="url(#3359bb2510)"><path fill="#e25251" d="M 31.851562 122.574219 C 31.4375 122.574219 31.027344 122.53125 30.621094 122.449219 C 30.214844 122.371094 29.816406 122.25 29.433594 122.089844 C 29.050781 121.929688 28.6875 121.734375 28.34375 121.503906 C 27.996094 121.273438 27.679688 121.011719 27.386719 120.714844 C 27.089844 120.421875 26.828125 120.101562 26.597656 119.753906 C 26.367188 119.410156 26.175781 119.042969 26.015625 118.660156 C 25.855469 118.273438 25.738281 117.878906 25.65625 117.46875 C 25.574219 117.0625 25.535156 116.648438 25.535156 116.234375 C 25.535156 115.816406 25.574219 115.40625 25.65625 114.996094 C 25.738281 114.589844 25.855469 114.191406 26.015625 113.808594 C 26.175781 113.421875 26.367188 113.058594 26.597656 112.710938 C 26.828125 112.367188 27.089844 112.046875 27.386719 111.75 C 27.679688 111.457031 27.996094 111.195312 28.34375 110.964844 C 28.6875 110.730469 29.050781 110.535156 29.433594 110.378906 C 29.816406 110.21875 30.214844 110.097656 30.621094 110.015625 C 31.027344 109.933594 31.4375 109.894531 31.851562 109.894531 C 32.269531 109.894531 32.679688 109.933594 33.085938 110.015625 C 33.492188 110.097656 33.886719 110.21875 34.269531 110.378906 C 34.652344 110.535156 35.019531 110.730469 35.363281 110.964844 C 35.707031 111.195312 36.027344 111.457031 36.320312 111.75 C 36.613281 112.046875 36.875 112.367188 37.105469 112.710938 C 37.335938 113.058594 37.53125 113.421875 37.691406 113.808594 C 37.847656 114.191406 37.96875 114.589844 38.050781 114.996094 C 38.128906 115.40625 38.171875 115.816406 38.171875 116.234375 C 38.171875 116.652344 38.132812 117.0625 38.054688 117.472656 C 37.976562 117.882812 37.855469 118.277344 37.699219 118.664062 C 37.539062 119.050781 37.34375 119.414062 37.113281 119.761719 C 36.882812 120.109375 36.621094 120.429688 36.328125 120.722656 C 36.035156 121.019531 35.714844 121.28125 35.371094 121.511719 C 35.023438 121.746094 34.660156 121.9375 34.273438 122.097656 C 33.890625 122.257812 33.496094 122.375 33.085938 122.457031 C 32.679688 122.535156 32.269531 122.574219 31.851562 122.574219 M 31.851562 111.164062 C 31.511719 111.160156 31.171875 111.195312 30.839844 111.261719 C 30.503906 111.328125 30.179688 111.425781 29.863281 111.554688 C 29.546875 111.6875 29.246094 111.847656 28.964844 112.035156 C 28.679688 112.226562 28.417969 112.441406 28.175781 112.683594 C 27.933594 112.925781 27.71875 113.191406 27.527344 113.476562 C 27.339844 113.761719 27.179688 114.0625 27.050781 114.378906 C 26.917969 114.695312 26.820312 115.019531 26.753906 115.355469 C 26.6875 115.691406 26.65625 116.03125 26.65625 116.375 C 26.652344 116.71875 26.679688 117.058594 26.742188 117.398438 C 26.800781 117.738281 26.898438 118.066406 27.027344 118.386719 C 27.152344 118.703125 27.3125 119.007812 27.5 119.292969 C 27.691406 119.582031 27.90625 119.847656 28.148438 120.089844 C 28.390625 120.332031 28.65625 120.550781 28.941406 120.738281 C 29.230469 120.929688 29.53125 121.089844 29.847656 121.21875 C 30.167969 121.347656 30.496094 121.441406 30.832031 121.503906 C 31.167969 121.566406 31.511719 121.59375 31.851562 121.585938 C 32.195312 121.585938 32.53125 121.554688 32.867188 121.488281 C 33.199219 121.417969 33.527344 121.320312 33.839844 121.191406 C 34.15625 121.058594 34.457031 120.898438 34.738281 120.707031 C 35.023438 120.519531 35.285156 120.300781 35.527344 120.058594 C 35.765625 119.816406 35.984375 119.554688 36.171875 119.269531 C 36.363281 118.984375 36.523438 118.683594 36.652344 118.371094 C 36.78125 118.054688 36.882812 117.726562 36.949219 117.390625 C 37.015625 117.054688 37.046875 116.71875 37.046875 116.375 C 37.046875 116.03125 37.015625 115.695312 36.949219 115.359375 C 36.882812 115.023438 36.78125 114.695312 36.652344 114.378906 C 36.523438 114.0625 36.363281 113.761719 36.171875 113.480469 C 35.984375 113.195312 35.765625 112.929688 35.527344 112.6875 C 35.285156 112.445312 35.023438 112.230469 34.738281 112.039062 C 34.457031 111.851562 34.15625 111.691406 33.839844 111.558594 C 33.527344 111.429688 33.199219 111.328125 32.867188 111.261719 C 32.53125 111.195312 32.195312 111.164062 31.851562 111.164062 " fill-opacity="1" fill-rule="nonzero"/></g><path fill="#1d4f3e" d="M 89.351562 189.359375 C 90.691406 189.386719 92.027344 189.300781 93.351562 189.105469 C 94.722656 188.933594 96 188.496094 97.1875 187.792969 C 97.714844 187.5 98.128906 187.089844 98.429688 186.5625 C 98.730469 186.039062 98.875 185.472656 98.859375 184.863281 C 98.875 184.332031 98.785156 183.824219 98.582031 183.332031 C 98.382812 182.839844 98.089844 182.414062 97.707031 182.046875 C 96.886719 181.316406 95.949219 180.789062 94.898438 180.46875 C 93.789062 180.117188 92.175781 179.695312 90.054688 179.1875 C 87.117188 178.5625 84.496094 177.285156 82.191406 175.355469 C 81.125 174.347656 80.324219 173.160156 79.789062 171.789062 C 79.253906 170.421875 79.035156 169.003906 79.128906 167.539062 C 79.15625 166.878906 79.214844 166.21875 79.3125 165.566406 C 79.449219 163.601562 80.074219 161.808594 81.179688 160.183594 C 82.359375 158.566406 83.875 157.382812 85.730469 156.632812 C 88.011719 155.738281 90.382812 155.320312 92.832031 155.382812 C 94.710938 155.414062 96.558594 155.6875 98.367188 156.199219 C 100.453125 156.746094 102.464844 157.496094 104.402344 158.4375 L 103.730469 164.890625 C 101.730469 164.023438 99.675781 163.320312 97.566406 162.777344 C 95.964844 162.339844 94.335938 162.097656 92.679688 162.042969 C 91.046875 161.9375 89.554688 162.34375 88.199219 163.269531 C 87.699219 163.636719 87.308594 164.097656 87.035156 164.65625 C 86.757812 165.214844 86.628906 165.804688 86.640625 166.425781 C 86.59375 167.355469 86.863281 168.183594 87.457031 168.902344 C 88.058594 169.566406 88.773438 170.058594 89.605469 170.382812 C 90.488281 170.734375 91.792969 171.15625 93.507812 171.636719 C 94.714844 171.976562 95.558594 172.230469 96.019531 172.382812 C 97.84375 172.957031 99.613281 173.660156 101.328125 174.496094 C 102.828125 175.308594 104.039062 176.429688 104.964844 177.863281 C 106.105469 179.800781 106.605469 181.886719 106.46875 184.132812 C 106.527344 186.472656 105.945312 188.640625 104.726562 190.640625 C 103.46875 192.570312 101.777344 193.976562 99.65625 194.867188 C 97.113281 195.898438 94.46875 196.367188 91.726562 196.273438 C 90.132812 196.28125 88.558594 196.113281 87.007812 195.769531 C 85.703125 195.476562 84.429688 195.085938 83.1875 194.597656 C 82.132812 194.148438 80.953125 193.613281 79.664062 192.992188 L 78.355469 192.359375 L 79.046875 185.695312 C 82.316406 187.386719 85.75 188.609375 89.351562 189.359375 Z M 89.351562 189.359375 " fill-opacity="1" fill-rule="nonzero"/><path fill="#1d4f3e" d="M 140.488281 162.789062 L 124.328125 162.789062 L 124.328125 172.550781 L 137.511719 172.550781 L 136.882812 179.160156 L 124.246094 179.160156 L 124.246094 189.019531 L 141.359375 189.019531 L 141.359375 195.640625 L 116.957031 195.640625 L 116.957031 162.789062 L 116.453125 156.183594 L 141.09375 156.183594 Z M 140.488281 162.789062 " fill-opacity="1" fill-rule="nonzero"/><path fill="#1d4f3e" d="M 178.09375 156.15625 L 166.183594 180.566406 L 166.183594 195.570312 L 158.839844 195.570312 L 158.839844 180.214844 L 149.011719 162.789062 L 147.03125 162.789062 L 147.03125 156.183594 L 153.957031 156.183594 L 161.972656 170.835938 L 162.632812 172.890625 L 162.730469 172.890625 L 163.292969 170.835938 L 170.734375 156.15625 Z M 178.09375 156.15625 " fill-opacity="1" fill-rule="nonzero"/><path fill="#1d4f3e" d="M 193.621094 156.183594 L 206.355469 178.878906 L 207.761719 182.089844 L 207.761719 156.183594 L 215.132812 156.183594 L 215.132812 195.625 L 207.480469 195.625 L 194.449219 171.945312 L 193.917969 170.722656 L 193.382812 169.398438 L 193.382812 195.570312 L 186.027344 195.570312 L 186.027344 162.679688 L 185.535156 156.183594 Z M 193.621094 156.183594 " fill-opacity="1" fill-rule="nonzero"/><path fill="#1d4f3e" d="M 250.40625 162.789062 L 234.257812 162.789062 L 234.257812 172.550781 L 247.441406 172.550781 L 246.867188 179.160156 L 234.230469 179.160156 L 234.230469 189.019531 L 251.34375 189.019531 L 251.34375 195.640625 L 226.871094 195.640625 L 226.871094 162.789062 L 226.367188 156.183594 L 250.964844 156.183594 Z M 250.40625 162.789062 " fill-opacity="1" fill-rule="nonzero"/><path fill="#1d4f3e" d="M 260.964844 195.570312 L 260.964844 167.832031 L 260.65625 158.777344 L 260.445312 156.183594 L 268.347656 156.183594 L 268.347656 174.496094 L 279.414062 156.183594 L 287.570312 156.183594 L 276.339844 175.355469 C 277.097656 176.90625 277.519531 177.765625 277.601562 177.960938 C 278.824219 180.496094 279.890625 182.554688 280.777344 184.132812 C 281.597656 185.613281 282.597656 186.960938 283.78125 188.175781 C 284.222656 188.683594 284.746094 189.082031 285.351562 189.378906 C 285.953125 189.671875 286.59375 189.832031 287.261719 189.867188 C 287.714844 189.859375 288.148438 189.777344 288.570312 189.613281 C 288.980469 189.453125 289.375 189.257812 289.75 189.019531 C 289.929688 188.917969 290.105469 188.800781 290.269531 188.667969 L 292.105469 192.894531 C 291.15625 193.828125 290.109375 194.628906 288.960938 195.304688 C 287.90625 195.964844 286.753906 196.308594 285.507812 196.332031 C 283.355469 196.339844 281.425781 195.683594 279.722656 194.359375 C 277.742188 192.777344 276.101562 190.898438 274.792969 188.722656 C 272.964844 185.773438 271.332031 182.714844 269.894531 179.554688 L 268.335938 182.722656 L 268.335938 195.640625 Z M 260.964844 195.570312 " fill-opacity="1" fill-rule="nonzero"/><path fill="#1d4f3e" d="M 304.324219 156.183594 L 304.324219 177.382812 C 304.15625 180.542969 304.746094 183.554688 306.09375 186.414062 C 306.25 186.652344 306.421875 186.882812 306.605469 187.101562 C 306.792969 187.320312 306.992188 187.527344 307.199219 187.722656 C 307.410156 187.917969 307.632812 188.097656 307.867188 188.265625 C 308.097656 188.433594 308.339844 188.585938 308.59375 188.722656 C 308.84375 188.859375 309.101562 188.980469 309.367188 189.085938 C 309.632812 189.191406 309.90625 189.28125 310.183594 189.355469 C 310.460938 189.425781 310.738281 189.480469 311.023438 189.519531 C 311.308594 189.558594 311.59375 189.578125 311.878906 189.582031 C 312.164062 189.585938 312.449219 189.570312 312.734375 189.539062 C 313.019531 189.507812 313.300781 189.457031 313.578125 189.390625 C 313.859375 189.324219 314.132812 189.242188 314.398438 189.140625 C 314.667969 189.042969 314.929688 188.925781 315.183594 188.792969 C 315.4375 188.660156 315.683594 188.515625 315.917969 188.351562 C 316.15625 188.191406 316.382812 188.015625 316.597656 187.824219 C 316.8125 187.632812 317.011719 187.433594 317.203125 187.21875 C 317.394531 187.003906 317.570312 186.777344 317.734375 186.539062 C 319.074219 183.632812 319.648438 180.582031 319.460938 177.382812 L 319.460938 156.183594 L 326.84375 156.183594 L 326.84375 177.738281 C 326.84375 190.085938 321.867188 196.265625 311.90625 196.273438 C 307.117188 196.273438 303.480469 194.867188 300.839844 191.9375 C 298.199219 189.007812 296.953125 184.246094 296.953125 177.496094 L 296.953125 162.789062 L 296.417969 156.183594 Z M 304.324219 156.183594 " fill-opacity="1" fill-rule="nonzero"/><path fill="#1d4f3e" d="M 349.242188 156.183594 L 361.976562 178.878906 L 363.378906 182.089844 L 363.378906 156.183594 L 370.765625 156.183594 L 370.765625 195.625 L 363.113281 195.625 L 350.027344 171.945312 L 349.492188 170.722656 L 348.960938 169.398438 L 348.960938 195.570312 L 341.589844 195.570312 L 341.589844 162.679688 L 341.082031 156.183594 Z M 349.242188 156.183594 " fill-opacity="1" fill-rule="nonzero"/></svg>